<?xml version="1.0" encoding="UTF-8"?>
<svg version="1.1" xmlns="http://www.w3.org/2000/svg" width="129" height="124">
<path d="M0 0 C4.5297998 2.15089487 6.53372527 4.83431318 8.375 9.4375 C8.99129883 12.95040334 9.50554534 16.46818097 10 20 C10.33 20.33 10.66 20.66 11 21 C10.96207417 22.62789352 10.84487354 24.25428742 10.6875 25.875 C10.60886719 26.75929688 10.53023438 27.64359375 10.44921875 28.5546875 C10 31 10 31 8 34 C8.99 33.34 9.98 32.68 11 32 C13.1875 32.375 13.1875 32.375 15 33 C14.39349046 42.50198277 9.03091443 50.73509959 2 57 C-8.28887339 63.82460626 -18.9984286 64.86417219 -31 63 C-41.35729014 60.4759545 -49.9559299 53.63438586 -56 45 C-56.75 42.1875 -56.75 42.1875 -57 40 C-57.66 40 -58.32 40 -59 40 C-61.29069225 33.61878587 -61.29897537 27.60911337 -61.25 20.875 C-61.25773437 19.80378906 -61.26546875 18.73257813 -61.2734375 17.62890625 C-61.26957031 16.07623047 -61.26957031 16.07623047 -61.265625 14.4921875 C-61.26336914 13.55745605 -61.26111328 12.62272461 -61.25878906 11.65966797 C-60.97958618 8.79019983 -60.19109907 6.61225649 -59 4 C-58.01 4 -57.02 4 -56 4 C-55.85304688 4.59425781 -55.70609375 5.18851563 -55.5546875 5.80078125 C-52.14492453 18.40122716 -46.05783096 29.01732534 -34.625 35.8125 C-25.66923918 40.34396188 -18.00575738 41.34903805 -8 41 C-11.63 40.67 -15.26 40.34 -19 40 C-18.731875 38.576875 -18.46375 37.15375 -18.1875 35.6875 C-17.57780491 30.01573116 -19.32384102 26.58365329 -21.8359375 21.6015625 C-23.7902503 17.23387014 -23.98683244 13.69035883 -22.30078125 9.09375 C-17.65224409 -0.16409615 -9.68770343 -1.57846909 0 0 Z M2 36 C1.01 36.495 1.01 36.495 0 37 C0 37.66 0 38.32 0 39 C1.32 38.34 2.64 37.68 4 37 C3.34 36.67 2.68 36.34 2 36 Z " fill="#4EA3AA" transform="translate(70,47)"/>
<path d="M0 0 C2.046875 1.9375 2.046875 1.9375 3.046875 4.9375 C4.036875 5.2675 5.026875 5.5975 6.046875 5.9375 C13.23722863 14.51357489 13.69182179 23.81452958 13.671875 34.625 C13.67018311 35.87901611 13.66849121 37.13303223 13.66674805 38.42504883 C13.465175 47.3716034 13.465175 47.3716034 11.64990234 49.82739258 C10.046875 50.9375 10.046875 50.9375 7.859375 50.625 C7.26125 50.398125 6.663125 50.17125 6.046875 49.9375 C5.89992188 49.17566406 5.75296875 48.41382813 5.6015625 47.62890625 C3.45378672 37.74173156 -0.38082956 30.73314975 -7.953125 23.9375 C-8.675 23.256875 -9.396875 22.57625 -10.140625 21.875 C-19.12398495 15.68646315 -29.52170307 13.91815711 -40.21484375 15.2109375 C-49.20777975 16.87455219 -55.87646175 21.23758924 -61.953125 27.9375 C-62.943125 27.6075 -63.933125 27.2775 -64.953125 26.9375 C-65.72314257 20.0073419 -63.0429306 15.03986607 -59.953125 8.9375 C-59.293125 8.9375 -58.633125 8.9375 -57.953125 8.9375 C-57.81583984 8.07125 -57.81583984 8.07125 -57.67578125 7.1875 C-55.90118954 1.66228472 -50.04825646 -2.74492369 -45.078125 -5.4375 C-29.8763335 -12.16079722 -13.07051035 -9.97287495 0 0 Z " fill="#2B7198" transform="translate(108.953125,27.0625)"/>
<path d="M0 0 C7.67577329 0.10985006 14.08544969 3.29208598 20.5 7.25 C20.5 7.91 20.5 8.57 20.5 9.25 C21.09554687 9.48074219 21.69109375 9.71148437 22.3046875 9.94921875 C25.07607499 11.59133981 26.03150849 13.28014702 27.625 16.0625 C28.12257812 16.91457031 28.62015625 17.76664063 29.1328125 18.64453125 C33.88435231 27.69960854 33.91086557 38.43222444 31.84765625 48.40234375 C27.7821529 59.44725198 19.02308302 68.40920554 8.4921875 73.390625 C7.83476563 73.67421875 7.17734375 73.9578125 6.5 74.25 C5.74557617 74.59224609 4.99115234 74.93449219 4.21386719 75.28710938 C1.32216037 76.31309819 -0.85667104 76.5081143 -3.9140625 76.515625 C-4.92210938 76.51820312 -5.93015625 76.52078125 -6.96875 76.5234375 C-8.0103125 76.51570313 -9.051875 76.50796875 -10.125 76.5 C-11.17429687 76.50773437 -12.22359375 76.51546875 -13.3046875 76.5234375 C-14.81289063 76.51957031 -14.81289063 76.51957031 -16.3515625 76.515625 C-17.26760254 76.51336914 -18.18364258 76.51111328 -19.12744141 76.50878906 C-21.5 76.25 -21.5 76.25 -24.5 74.25 C-24.5 73.26 -24.5 72.27 -24.5 71.25 C-23.60539062 70.92128906 -22.71078125 70.59257813 -21.7890625 70.25390625 C-8.7842091 65.13792448 0.77049934 57.47456526 6.75 44.625 C10.26690628 36.2014422 10.64498937 27.89872077 7.5 19.25 C6.25058056 16.53609711 4.89435246 13.89164432 3.5 11.25 C3.17 10.53199219 2.84 9.81398438 2.5 9.07421875 C1.63097366 7.07826143 1.63097366 7.07826143 -0.5 6.25 C-2.99016793 5.00491604 -3.48686718 3.78283204 -4.5 1.25 C-3.5 0.25 -3.5 0.25 0 0 Z " fill="#51A4AA" transform="translate(78.5,44.75)"/>
<path d="M0 0 C1.61841797 0.00773438 1.61841797 0.00773438 3.26953125 0.015625 C11.15824083 0.09441361 11.15824083 0.09441361 14.625 1.25 C14.625 2.24 14.625 3.23 14.625 4.25 C13.67625 4.641875 12.7275 5.03375 11.75 5.4375 C1.25249137 9.96314345 1.25249137 9.96314345 -7.375 17.25 C-8.035 17.25 -8.695 17.25 -9.375 17.25 C-9.643125 17.96027344 -9.91125 18.67054687 -10.1875 19.40234375 C-11.40844317 22.33019761 -12.85918481 25.02718958 -14.375 27.8125 C-17.44365186 33.89741211 -18.76682375 39.49248615 -19.375 46.25 C-19.44589844 46.94609375 -19.51679687 47.6421875 -19.58984375 48.359375 C-19.95744035 55.47604518 -18.36495504 63.94950596 -14.125 69.75 C-12.375 72.25 -12.375 72.25 -12.625 74.625 C-12.8725 75.16125 -13.12 75.6975 -13.375 76.25 C-19.03111463 76.81561146 -22.60142128 74.96391278 -27.375 72.25 C-27.375 71.59 -27.375 70.93 -27.375 70.25 C-29.025 69.59 -30.675 68.93 -32.375 68.25 C-32.375 67.59 -32.375 66.93 -32.375 66.25 C-33.035 66.25 -33.695 66.25 -34.375 66.25 C-41.97726995 56.10658132 -44.77221398 45.83823262 -43.375 33.25 C-40.37566445 20.6394603 -34.7253222 12.14666676 -24.1953125 4.7578125 C-16.17881023 0.47198165 -9.01142466 -0.17604737 0 0 Z " fill="#256E97" transform="translate(62.375,8.75)"/>
<path d="M0 0 C3.09936522 2.64579958 4.3064503 4.56409208 4.94140625 8.58984375 C5.00199219 9.42644531 5.06257813 10.26304688 5.125 11.125 C5.32269242 13.73534689 5.54764752 16.12771407 6.1796875 18.671875 C6.64235547 21.7122645 6.09234746 23.59795761 5.125 26.5 C4.69380859 27.82451172 4.69380859 27.82451172 4.25390625 29.17578125 C4.02574219 29.83964844 3.79757813 30.50351563 3.5625 31.1875 C1.2525 31.1875 -1.0575 31.1875 -3.4375 31.1875 C-3.4375 32.1775 -3.4375 33.1675 -3.4375 34.1875 C-8.7175 34.1875 -13.9975 34.1875 -19.4375 34.1875 C-19.169375 32.90875 -18.90125 31.63 -18.625 30.3125 C-18.12551753 26.11947607 -18.82838645 23.85530743 -20.875 20.1875 C-23.54035487 15.39283928 -24.54155006 11.62442575 -23.4375 6.1875 C-21.56716697 2.14758066 -20.04968456 0.55961219 -16.25 -1.75 C-10.14022596 -3.45272391 -5.60851421 -2.95721659 0 0 Z " fill="#1A2D4E" transform="translate(72.4375,50.8125)"/>
<path d="M0 0 C4.5297998 2.15089487 6.53372527 4.83431318 8.375 9.4375 C8.99129883 12.95040334 9.50554534 16.46818097 10 20 C10.33 20.33 10.66 20.66 11 21 C10.96207417 22.62789352 10.84487354 24.25428742 10.6875 25.875 C10.60886719 26.75929688 10.53023438 27.64359375 10.44921875 28.5546875 C10 31 10 31 8 34 C8.99 33.34 9.98 32.68 11 32 C13.1875 32.375 13.1875 32.375 15 33 C14.39349046 42.50198277 9.03091443 50.73509959 2 57 C-8.28887339 63.82460626 -18.9984286 64.86417219 -31 63 C-41.35729014 60.4759545 -49.9559299 53.63438586 -56 45 C-56.75 42.1875 -56.75 42.1875 -57 40 C-57.66 40 -58.32 40 -59 40 C-61.29069225 33.61878587 -61.29897537 27.60911337 -61.25 20.875 C-61.25773437 19.80378906 -61.26546875 18.73257813 -61.2734375 17.62890625 C-61.26957031 16.07623047 -61.26957031 16.07623047 -61.265625 14.4921875 C-61.26336914 13.55745605 -61.26111328 12.62272461 -61.25878906 11.65966797 C-60.97958618 8.79019983 -60.19109907 6.61225649 -59 4 C-58.01 4 -57.02 4 -56 4 C-55.67 6.31 -55.34 8.62 -55 11 C-55.99 9.68 -56.98 8.36 -58 7 C-60.31169475 16.24677899 -61.0844782 29.5741444 -56.25390625 38.0234375 C-55.84011719 38.67570312 -55.42632812 39.32796875 -55 40 C-54.57589844 40.83789062 -54.15179688 41.67578125 -53.71484375 42.5390625 C-50.24689047 49.08856757 -46.43188687 52.46403609 -40 56 C-39.26136719 56.48597656 -38.52273437 56.97195312 -37.76171875 57.47265625 C-30.24480281 62.00807276 -22.47183871 61.95395704 -14 61 C-10.67310569 60.07949694 -7.94562239 58.77585876 -5 57 C-3.99839844 56.47986328 -3.99839844 56.47986328 -2.9765625 55.94921875 C0.24553306 54.24611109 1.94685997 53.07971005 4 50 C4.66 50 5.32 50 6 50 C7.43110959 47.17001302 8.8071805 44.32206046 10.125 41.4375 C10.47820312 40.67308594 10.83140625 39.90867188 11.1953125 39.12109375 C12.17735307 36.91061162 12.17735307 36.91061162 12 34 C11.38125 34.495 10.7625 34.99 10.125 35.5 C8 37 8 37 6 37 C6 37.66 6 38.32 6 39 C-2.90650345 43.14772718 -10.35937228 43.46837058 -20 43 C-20 42.67 -20 42.34 -20 42 C-14.06 41.505 -14.06 41.505 -8 41 C-11.63 40.67 -15.26 40.34 -19 40 C-18.731875 38.576875 -18.46375 37.15375 -18.1875 35.6875 C-17.57780491 30.01573116 -19.32384102 26.58365329 -21.8359375 21.6015625 C-23.7902503 17.23387014 -23.98683244 13.69035883 -22.30078125 9.09375 C-17.65224409 -0.16409615 -9.68770343 -1.57846909 0 0 Z M-20 7.1875 C-21.79378603 12.2325232 -22.00786832 16.64480772 -19.875 21.62890625 C-18.98744353 23.32081077 -18.06245005 24.99383491 -17.09375 26.640625 C-15.19043038 30.74635733 -15.92022171 33.68088683 -17 38 C-11.72 38 -6.44 38 -1 38 C-1 37.01 -1 36.02 -1 35 C1.31 35 3.62 35 6 35 C6.53532823 33.44240657 7.05265378 31.87861955 7.5625 30.3125 C7.85253906 29.44238281 8.14257812 28.57226562 8.44140625 27.67578125 C9.06404652 24.69320372 8.72828957 22.93159598 8 20 C7.75431832 17.46908878 7.56256787 14.93843719 7.37890625 12.40234375 C6.81099511 8.80167004 5.98412317 6.74793361 3.046875 4.515625 C-5.50064874 -0.19423502 -13.01325095 -0.45425678 -20 7.1875 Z M2 36 C1.01 36.495 1.01 36.495 0 37 C0 37.66 0 38.32 0 39 C1.32 38.34 2.64 37.68 4 37 C3.34 36.67 2.68 36.34 2 36 Z " fill="#E8EBF0" transform="translate(70,47)"/>
<path d="M0 0 C7.67577329 0.10985006 14.08544969 3.29208598 20.5 7.25 C20.5 7.91 20.5 8.57 20.5 9.25 C21.09554687 9.48074219 21.69109375 9.71148437 22.3046875 9.94921875 C25.07607499 11.59133981 26.03150849 13.28014702 27.625 16.0625 C28.12257812 16.91457031 28.62015625 17.76664063 29.1328125 18.64453125 C33.88435231 27.69960854 33.91086557 38.43222444 31.84765625 48.40234375 C27.7821529 59.44725198 19.02308302 68.40920554 8.4921875 73.390625 C7.83476563 73.67421875 7.17734375 73.9578125 6.5 74.25 C5.74557617 74.59224609 4.99115234 74.93449219 4.21386719 75.28710938 C1.32216037 76.31309819 -0.85667104 76.5081143 -3.9140625 76.515625 C-4.92210938 76.51820312 -5.93015625 76.52078125 -6.96875 76.5234375 C-8.0103125 76.51570313 -9.051875 76.50796875 -10.125 76.5 C-11.17429687 76.50773437 -12.22359375 76.51546875 -13.3046875 76.5234375 C-14.81289063 76.51957031 -14.81289063 76.51957031 -16.3515625 76.515625 C-17.26760254 76.51336914 -18.18364258 76.51111328 -19.12744141 76.50878906 C-21.5 76.25 -21.5 76.25 -24.5 74.25 C-24.5 73.26 -24.5 72.27 -24.5 71.25 C-23.60539062 70.92128906 -22.71078125 70.59257813 -21.7890625 70.25390625 C-8.7842091 65.13792448 0.77049934 57.47456526 6.75 44.625 C10.26690628 36.2014422 10.64498937 27.89872077 7.5 19.25 C6.25058056 16.53609711 4.89435246 13.89164432 3.5 11.25 C3.17 10.53199219 2.84 9.81398438 2.5 9.07421875 C1.63097366 7.07826143 1.63097366 7.07826143 -0.5 6.25 C-2.99016793 5.00491604 -3.48686718 3.78283204 -4.5 1.25 C-3.5 0.25 -3.5 0.25 0 0 Z M-2.5 2.25 C-1.778125 2.91 -1.05625 3.57 -0.3125 4.25 C2.95908134 7.53084927 5.23057039 11.23365549 7.5 15.25 C8.098125 16.260625 8.69625 17.27125 9.3125 18.3125 C12.22411901 25.60828097 11.61214013 35.32453949 8.875 42.5625 C3.24549708 54.5427233 3.24549708 54.5427233 -1.18359375 58.91015625 C-2.73361344 60.17471848 -2.73361344 60.17471848 -2.5 62.25 C-4.5 63.25 -6.5 64.25 -8.5 65.25 C-8.5 65.91 -8.5 66.57 -8.5 67.25 C-9.17546875 67.44335938 -9.8509375 67.63671875 -10.546875 67.8359375 C-11.88492188 68.22652344 -11.88492188 68.22652344 -13.25 68.625 C-14.13171875 68.88023438 -15.0134375 69.13546875 -15.921875 69.3984375 C-18.26080572 70.1709934 -20.33442562 71.08625676 -22.5 72.25 C-15.48061713 75.88071528 -7.94829611 76.41683576 -0.18359375 74.75390625 C1.80295169 74.04356576 3.62492336 73.21653435 5.5 72.25 C6.23863281 71.88648437 6.97726563 71.52296875 7.73828125 71.1484375 C19.42660526 65.05872247 26.62256461 56.58341468 30.80859375 44.0078125 C33.18532931 34.52772604 31.04589862 25.29081117 26.1875 16.9375 C23.77772363 13.37987158 21.03193081 10.68448185 17.5 8.25 C16.75621094 7.70988281 16.01242188 7.16976562 15.24609375 6.61328125 C9.21088275 2.56147292 4.7227151 1.42015614 -2.5 2.25 Z " fill="#E1F5F5" transform="translate(78.5,44.75)"/>
<path d="M0 0 C1.61841797 0.00773438 1.61841797 0.00773438 3.26953125 0.015625 C11.15824083 0.09441361 11.15824083 0.09441361 14.625 1.25 C14.625 2.24 14.625 3.23 14.625 4.25 C13.67625 4.641875 12.7275 5.03375 11.75 5.4375 C1.25249137 9.96314345 1.25249137 9.96314345 -7.375 17.25 C-8.035 17.25 -8.695 17.25 -9.375 17.25 C-9.643125 17.96027344 -9.91125 18.67054687 -10.1875 19.40234375 C-11.40844317 22.33019761 -12.85918481 25.02718958 -14.375 27.8125 C-17.44365186 33.89741211 -18.76682375 39.49248615 -19.375 46.25 C-19.44589844 46.94609375 -19.51679687 47.6421875 -19.58984375 48.359375 C-19.95744035 55.47604518 -18.36495504 63.94950596 -14.125 69.75 C-12.375 72.25 -12.375 72.25 -12.625 74.625 C-12.8725 75.16125 -13.12 75.6975 -13.375 76.25 C-19.03111463 76.81561146 -22.60142128 74.96391278 -27.375 72.25 C-27.375 71.59 -27.375 70.93 -27.375 70.25 C-29.025 69.59 -30.675 68.93 -32.375 68.25 C-32.375 67.59 -32.375 66.93 -32.375 66.25 C-33.035 66.25 -33.695 66.25 -34.375 66.25 C-41.97726995 56.10658132 -44.77221398 45.83823262 -43.375 33.25 C-40.37566445 20.6394603 -34.7253222 12.14666676 -24.1953125 4.7578125 C-16.17881023 0.47198165 -9.01142466 -0.17604737 0 0 Z M-33.0625 16.0625 C-40.28682051 26.0203472 -42.47516426 35.02026704 -41.375 47.25 C-38.7902643 57.25075306 -32.84189881 66.51016659 -24.25 72.375 C-20.89287273 74.26587208 -18.26025021 74.73565628 -14.375 74.25 C-15.00556247 71.30737515 -15.96526628 68.90361642 -17.375 66.25 C-22.12685427 57.30533314 -21.57900961 45.34202687 -19.65625 35.61328125 C-17.75346027 29.62102811 -15.11101802 24.30074577 -11.375 19.25 C-10.94574219 18.64542969 -10.51648438 18.04085938 -10.07421875 17.41796875 C-4.64652528 10.40019043 3.02442407 6.11969042 11.625 4.25 C11.625 3.59 11.625 2.93 11.625 2.25 C-6.12150568 -2.63078257 -20.7960291 3.22549556 -33.0625 16.0625 Z " fill="#EAF8FC" transform="translate(62.375,8.75)"/>
<path d="M0 0 C2.046875 1.9375 2.046875 1.9375 3.046875 4.9375 C4.036875 5.2675 5.026875 5.5975 6.046875 5.9375 C13.23722863 14.51357489 13.69182179 23.81452958 13.671875 34.625 C13.67018311 35.87901611 13.66849121 37.13303223 13.66674805 38.42504883 C13.465175 47.3716034 13.465175 47.3716034 11.64990234 49.82739258 C10.046875 50.9375 10.046875 50.9375 7.859375 50.625 C7.26125 50.398125 6.663125 50.17125 6.046875 49.9375 C5.89992188 49.17566406 5.75296875 48.41382813 5.6015625 47.62890625 C4.19104082 41.13564265 2.42664746 36.21872102 -1.55078125 30.875 C-2.9315673 28.96728445 -3.95925702 27.06789644 -4.953125 24.9375 C0.53268454 27.07482839 2.43344091 31.95660208 5.046875 36.9375 C6.81769428 41.12307286 7.26280336 44.40300437 7.046875 48.9375 C8.036875 48.9375 9.026875 48.9375 10.046875 48.9375 C11.88138471 35.86661834 13.25435031 21.8321436 5.171875 10.625 C0.42538266 4.8314873 -4.45206629 0.62100245 -10.953125 -3.0625 C-11.57058594 -3.41957031 -12.18804687 -3.77664062 -12.82421875 -4.14453125 C-20.33278683 -7.3821707 -30.5755495 -7.28639292 -38.3203125 -5.12109375 C-49.02021818 -0.86514623 -54.27652332 5.1204904 -59.953125 14.9375 C-60.35015625 15.60652344 -60.7471875 16.27554688 -61.15625 16.96484375 C-62.13408094 19.38545465 -62.09680328 21.35129102 -61.953125 23.9375 C-61.27830078 23.24914063 -61.27830078 23.24914063 -60.58984375 22.546875 C-51.03929767 13.43653445 -41.38893168 12.35202269 -28.69921875 12.6015625 C-24.953125 12.9375 -24.953125 12.9375 -22.953125 14.9375 C-23.93152344 14.91429688 -24.90992188 14.89109375 -25.91796875 14.8671875 C-37.95990007 14.70141853 -48.37028353 15.30641435 -57.8515625 23.59765625 C-59.26398848 25.00013557 -60.61591025 26.46313501 -61.953125 27.9375 C-62.943125 27.6075 -63.933125 27.2775 -64.953125 26.9375 C-65.72314257 20.0073419 -63.0429306 15.03986607 -59.953125 8.9375 C-59.293125 8.9375 -58.633125 8.9375 -57.953125 8.9375 C-57.81583984 8.07125 -57.81583984 8.07125 -57.67578125 7.1875 C-55.90118954 1.66228472 -50.04825646 -2.74492369 -45.078125 -5.4375 C-29.8763335 -12.16079722 -13.07051035 -9.97287495 0 0 Z " fill="#E3F2F8" transform="translate(108.953125,27.0625)"/>
<path d="M0 0 C2 2 2 2 2 6 C2.66 6 3.32 6 4 6 C10.84880289 19.11610364 10.84880289 19.11610364 12 25 C11.67 25.66 11.34 26.32 11 27 C10.01 27 9.02 27 8 27 C8 29.31 8 31.62 8 34 C6.515 34.495 6.515 34.495 5 35 C3 34 3 34 1 31 C0.47019531 30.30648437 -0.05960938 29.61296875 -0.60546875 28.8984375 C-2.58643744 24.78113003 -2.39971732 21.13239104 -2.3125 16.625 C-2.31572266 15.8 -2.31894531 14.975 -2.32226562 14.125 C-2.27796806 9.05091531 -1.6262684 4.80753448 0 0 Z " fill="#4CA3AA" transform="translate(12,52)"/>
<path d="M0 0 C0.99 0 1.98 0 3 0 C3.33 2.31 3.66 4.62 4 7 C3.01 5.68 2.02 4.36 1 3 C-1.31169475 12.24677899 -2.0844782 25.5741444 2.74609375 34.0234375 C3.15988281 34.67570312 3.57367188 35.32796875 4 36 C4.42410156 36.83789062 4.84820313 37.67578125 5.28515625 38.5390625 C8.75310953 45.08856757 12.56811313 48.46403609 19 52 C19.73863281 52.48597656 20.47726563 52.97195312 21.23828125 53.47265625 C28.75519719 58.00807276 36.52816129 57.95395704 45 57 C48.32689431 56.07949694 51.05437761 54.77585876 54 53 C55.00160156 52.47986328 55.00160156 52.47986328 56.0234375 51.94921875 C59.24553306 50.24611109 60.94685997 49.07971005 63 46 C63.66 46 64.32 46 65 46 C66.84180245 42.52295239 68.22825139 38.92565423 69.625 35.25 C70.07101563 34.07953125 70.51703125 32.9090625 70.9765625 31.703125 C71.48316406 30.36507812 71.48316406 30.36507812 72 29 C71.34 28.67 70.68 28.34 70 28 C71.98 28.495 71.98 28.495 74 29 C73.39349046 38.50198277 68.03091443 46.73509959 61 53 C50.71112661 59.82460626 40.0015714 60.86417219 28 59 C17.64270986 56.4759545 9.0440701 49.63438586 3 41 C2.25 38.1875 2.25 38.1875 2 36 C1.34 36 0.68 36 0 36 C-2.29069225 29.61878587 -2.29897537 23.60911337 -2.25 16.875 C-2.25773438 15.80378906 -2.26546875 14.73257813 -2.2734375 13.62890625 C-2.26957031 12.07623047 -2.26957031 12.07623047 -2.265625 10.4921875 C-2.26336914 9.55745605 -2.26111328 8.62272461 -2.25878906 7.65966797 C-1.97958618 4.79019983 -1.19109907 2.61225649 0 0 Z " fill="#E8F8F9" transform="translate(11,51)"/>
<path d="M0 0 C0.78890625 0.00515625 1.5778125 0.0103125 2.390625 0.015625 C6.02599694 0.06475165 9.23209713 0.2687627 12.75 1.25 C12.75 1.91 12.75 2.57 12.75 3.25 C12.06035156 3.45753906 11.37070313 3.66507813 10.66015625 3.87890625 C1.58664342 6.85362445 -4.61901641 11.48550668 -11.25 18.25 C-11.25 17.59 -11.25 16.93 -11.25 16.25 C-11.91 16.25 -12.57 16.25 -13.25 16.25 C-12.92 14.93 -12.59 13.61 -12.25 12.25 C-11.59 12.25 -10.93 12.25 -10.25 12.25 C-9.92 11.59 -9.59 10.93 -9.25 10.25 C-6.1875 9.625 -6.1875 9.625 -3.25 9.25 C-3.25 8.59 -3.25 7.93 -3.25 7.25 C-2.26 7.25 -1.27 7.25 -0.25 7.25 C-0.25 6.59 -0.25 5.93 -0.25 5.25 C0.41 5.25 1.07 5.25 1.75 5.25 C2.08 3.93 2.41 2.61 2.75 1.25 C-2.53 1.91 -7.81 2.57 -13.25 3.25 C-13.25 3.91 -13.25 4.57 -13.25 5.25 C-14.49176695 5.95226141 -15.74385599 6.63629109 -17 7.3125 C-18.04414062 7.88677734 -18.04414062 7.88677734 -19.109375 8.47265625 C-21.61140628 9.3812406 -22.7832355 9.13336837 -25.25 8.25 C-24.08986202 7.46937524 -22.92138097 6.70115029 -21.75 5.9375 C-21.1003125 5.50824219 -20.450625 5.07898438 -19.78125 4.63671875 C-13.15469048 1.00642765 -7.53452803 -0.20092075 0 0 Z " fill="#377393" transform="translate(61.25,9.75)"/>
<path d="M0 0 C0.66 0 1.32 0 2 0 C0.54234861 3.75920622 0.54234861 3.75920622 -1.8828125 4.8359375 C-2.62273437 5.01382812 -3.36265625 5.19171875 -4.125 5.375 C-8.58356992 6.67451877 -11.61238548 8.66177672 -15.17578125 11.59765625 C-17 13 -17 13 -19.10546875 13.87109375 C-21.75120856 15.44762737 -22.00998097 17.12481973 -23 20 C-23.99247988 21.85820282 -24.99299505 23.7121284 -26 25.5625 C-32.39875883 38.25077056 -31.52577268 50.46907495 -29 64 C-31 63 -31 63 -32.1015625 60.01171875 C-35.51280059 46.85935185 -33.4625259 32.39317366 -26.6875 20.75 C-25.81871699 19.48105026 -24.92189253 18.23090679 -24 17 C-23.49726562 16.32195313 -22.99453125 15.64390625 -22.4765625 14.9453125 C-17.49982789 8.75360043 -10.95596774 3.3191511 -2.875 2.125 C-1.451875 2.063125 -1.451875 2.063125 0 2 C0 1.34 0 0.68 0 0 Z " fill="#D5E9F1" transform="translate(74,11)"/>
<path d="M0 0 C0.99 0.33 1.98 0.66 3 1 C2.401875 1.226875 1.80375 1.45375 1.1875 1.6875 C-1.76738497 3.46043098 -2.64499863 4.81574678 -4 8 C-5.18750406 14.53127235 -3.39362336 19.03084029 -0.09375 24.640625 C1.1906588 27.41127826 1.41296376 28.97785609 1 32 C-0.485 34.475 -0.485 34.475 -2 37 C4.6 37 11.2 37 18 37 C12.81173757 40.89119682 9.53925381 41.13808151 3.3125 41.0625 C2.61060547 41.05798828 1.90871094 41.05347656 1.18554688 41.04882812 C-0.54300538 41.03706927 -2.27151365 41.01913454 -4 41 C-4 40.67 -4 40.34 -4 40 C1.94 39.505 1.94 39.505 8 39 C4.37 38.67 0.74 38.34 -3 38 C-2.5978125 35.8653125 -2.5978125 35.8653125 -2.1875 33.6875 C-1.57780491 28.01573116 -3.32384102 24.58365329 -5.8359375 19.6015625 C-7.60705214 15.64329957 -7.64470764 13.2980509 -7 9 C-5.38872615 5.04221083 -3.61791914 2.41194609 0 0 Z " fill="#DDE1E7" transform="translate(54,49)"/>
<path d="M0 0 C0.33 0 0.66 0 1 0 C1.03738281 0.845625 1.07476562 1.69125 1.11328125 2.5625 C1.58143063 10.64037161 2.47742572 16.79570954 6.6875 23.8125 C8 26 8 26 8 29 C2.97306969 29.41276847 0.62149099 28.52437156 -3.375 25.5 C-4.24898437 24.8503125 -5.12296875 24.200625 -6.0234375 23.53125 C-6.67570312 23.0259375 -7.32796875 22.520625 -8 22 C-6.1875 21.375 -6.1875 21.375 -4 21 C-3.01 21.66 -2.02 22.32 -1 23 C-1.33 20.03 -1.66 17.06 -2 14 C-1.67 14 -1.34 14 -1 14 C-0.67 9.38 -0.34 4.76 0 0 Z " fill="#467FA4" transform="translate(40,54)"/>
<path d="M0 0 C1.60741459 2.41112189 2.95965537 4.76104385 4.3125 7.3125 C8.25663882 14.38672574 12.65959353 19.45142143 20 23 C23.30984583 23.86219774 23.30984583 23.86219774 26 24 C25.484375 23.05125 24.96875 22.1025 24.4375 21.125 C23.963125 20.09375 23.48875 19.0625 23 18 C23.33 17.34 23.66 16.68 24 16 C28.06153846 21.41538462 28.06153846 21.41538462 27.75 24.375 C27.5025 24.91125 27.255 25.4475 27 26 C21.34388537 26.56561146 17.77357872 24.71391278 13 22 C13 21.34 13 20.68 13 20 C10.525 19.01 10.525 19.01 8 18 C8 17.34 8 16.68 8 16 C7.34 16 6.68 16 6 16 C2.78899008 11.79074865 0.17346378 7.67681655 -0.375 2.375 C-0.25125 1.59125 -0.1275 0.8075 0 0 Z " fill="#E1EFF5" transform="translate(22,59)"/>
<path d="M0 0 C1.32 0.33 2.64 0.66 4 1 C3.38160601 10.68817245 -2.09768664 18.4242477 -9 25 C-13.84722706 28.90196282 -17.96983658 29.42316936 -24 29 C-23.45601562 28.73058594 -22.91203125 28.46117188 -22.3515625 28.18359375 C-19.67716735 26.83751114 -17.02089197 25.46389561 -14.375 24.0625 C-13.41335937 23.55847656 -12.45171875 23.05445312 -11.4609375 22.53515625 C-8.75829543 21.08417427 -8.75829543 21.08417427 -7 18 C-6.34 18 -5.68 18 -5 18 C-3.15819755 14.52295239 -1.77174861 10.92565423 -0.375 7.25 C0.07101563 6.07953125 0.51703125 4.9090625 0.9765625 3.703125 C1.31429687 2.81109375 1.65203125 1.9190625 2 1 C1.34 0.67 0.68 0.34 0 0 Z " fill="#E9F8F8" transform="translate(81,79)"/>
<path d="M0 0 C2.31 0 4.62 0 7 0 C5.02 0.99 5.02 0.99 3 2 C4.03125 2.721875 5.0625 3.44375 6.125 4.1875 C12.27977776 9.55256085 15.44098746 16.81807412 16.51171875 24.828125 C16.73773689 32.52832928 15.89034888 39.25578204 12 46 C11.34 46.66 10.68 47.32 10 48 C10.5249244 44.74546874 11.42019107 41.82669057 12.5625 38.75 C15.23780204 30.85523614 14.54111212 23.51962879 11.046875 15.9296875 C10.0609911 13.93584767 9.03823433 11.96696738 8 10 C7.67 9.28199219 7.34 8.56398438 7 7.82421875 C6.13097366 5.82826143 6.13097366 5.82826143 4 5 C1.50983207 3.75491604 1.01313282 2.53283204 0 0 Z " fill="#DAF2F4" transform="translate(74,46)"/>
<path d="M0 0 C2 2 2 2 2 6 C2.66 6 3.32 6 4 6 C5.03041513 7.95330868 6.0490893 9.91281528 7.0625 11.875 C7.63097656 12.96554688 8.19945312 14.05609375 8.78515625 15.1796875 C9.18605469 16.11039063 9.58695313 17.04109375 10 18 C9.67 18.66 9.34 19.32 9 20 C4.80186938 16.25572134 2.92223883 13.1596937 1 8 C0.21311555 10.77723925 -0.11949924 13.22610077 -0.09765625 16.109375 C-0.09443359 16.86347656 -0.09121094 17.61757812 -0.08789062 18.39453125 C-0.07951172 19.17183594 -0.07113281 19.94914062 -0.0625 20.75 C-0.05798828 21.54277344 -0.05347656 22.33554688 -0.04882812 23.15234375 C-0.03708565 25.10159508 -0.01915146 27.05080738 0 29 C-2.04741651 25.92887523 -2.2549866 25.2665125 -2.265625 21.796875 C-2.26820312 20.98089844 -2.27078125 20.16492188 -2.2734375 19.32421875 C-2.26570312 18.47472656 -2.25796875 17.62523438 -2.25 16.75 C-2.25773438 15.91597656 -2.26546875 15.08195312 -2.2734375 14.22265625 C-2.2573524 9.09955334 -1.65232867 4.85207625 0 0 Z " fill="#9AC6C7" transform="translate(12,52)"/>
<path d="M0 0 C0.66 0.66 1.32 1.32 2 2 C1.02160156 1.97679687 0.04320312 1.95359375 -0.96484375 1.9296875 C-12.85473609 1.7660115 -23.56525457 2.24836152 -32.828125 10.66015625 C-34.22820746 12.09761955 -35.61527969 13.54773236 -37 15 C-37.66 15 -38.32 15 -39 15 C-39 13.35 -39 11.7 -39 10 C-38.01 10 -37.02 10 -36 10 C-34.49309978 8.81391036 -34.49309978 8.81391036 -33 7.25 C-23.61087113 -0.95333827 -11.85936788 -1.06350953 0 0 Z " fill="#D1E8F1" transform="translate(84,40)"/>
<path d="M0 0 C0.99 0.33 1.98 0.66 3 1 C1.60480613 3.79038773 -0.36040138 4.37434184 -3.20703125 5.390625 C-6.88556893 6.19321504 -10.50093796 6.33690408 -14.25 6.375 C-14.94746338 6.38869629 -15.64492676 6.40239258 -16.36352539 6.41650391 C-20.52289969 6.37943373 -22.9838038 5.93845918 -26 3 C-21.91721966 1.91681338 -18.82121165 2.16526815 -14.6875 2.9375 C-13.61886719 3.13214844 -12.55023438 3.32679687 -11.44921875 3.52734375 C-10.23685547 3.76130859 -10.23685547 3.76130859 -9 4 C-8.67 3.01 -8.34 2.02 -8 1 C-7.4225 1.20625 -6.845 1.4125 -6.25 1.625 C-3.45056721 2.09157213 -2.46296498 1.27120773 0 0 Z " fill="#6DAEAE" transform="translate(62,103)"/>
<path d="M0 0 C0.99 0.86625 1.98 1.7325 3 2.625 C4.33276068 3.75067835 5.66611582 4.87565318 7 6 C7.88558594 6.78890625 7.88558594 6.78890625 8.7890625 7.59375 C14.52789039 12.38017667 20.84276983 14.14522999 28 16 C24.55143996 17.19189863 22.54352883 16.78580886 19.125 15.625 C15.42137342 14.42515648 11.87284574 13.50958497 8 13 C8 12.34 8 11.68 8 11 C7.01 11 6.02 11 5 11 C4.35165346 9.730447 3.70642185 8.45930294 3.0625 7.1875 C2.70285156 6.47980469 2.34320312 5.77210937 1.97265625 5.04296875 C1 3 1 3 0 0 Z " fill="#6FADB6" transform="translate(22,72)"/>
<path d="M0 0 C0.625 1.8125 0.625 1.8125 1 4 C0.01 5.485 0.01 5.485 -1 7 C0.32 6.67 1.64 6.34 3 6 C1.71034824 7.37562854 0.37310707 8.70766393 -1 10 C-1.66 10 -2.32 10 -3 10 C-3 10.66 -3 11.32 -3 12 C-4.32 12.33 -5.64 12.66 -7 13 C-7 12.01 -7 11.02 -7 10 C-7.66 10 -8.32 10 -9 10 C-9 10.66 -9 11.32 -9 12 C-14.94 12 -20.88 12 -27 12 C-26.67 11.34 -26.34 10.68 -26 10 C-20.72 10.33 -15.44 10.66 -10 11 C-10 10.01 -10 9.02 -10 8 C-7.69 8 -5.38 8 -3 8 C-2.67 6.02 -2.34 4.04 -2 2 C-1.34 2 -0.68 2 0 2 C0 1.34 0 0.68 0 0 Z " fill="#C9D4DD" transform="translate(79,74)"/>
<path d="M0 0 C0.78890625 0.00515625 1.5778125 0.0103125 2.390625 0.015625 C6.02599694 0.06475165 9.23209713 0.2687627 12.75 1.25 C12.75 1.91 12.75 2.57 12.75 3.25 C12.07839844 3.08757813 11.40679687 2.92515625 10.71484375 2.7578125 C7.20427443 2.15652922 3.8738112 2.11782717 0.3125 2.125 C-0.96496094 2.12242188 -2.24242188 2.11984375 -3.55859375 2.1171875 C-6.8892337 2.23702005 -9.98364456 2.61389369 -13.25 3.25 C-13.25 3.91 -13.25 4.57 -13.25 5.25 C-14.49176695 5.95226141 -15.74385599 6.63629109 -17 7.3125 C-18.04414062 7.88677734 -18.04414062 7.88677734 -19.109375 8.47265625 C-21.61140628 9.3812406 -22.7832355 9.13336837 -25.25 8.25 C-24.08986202 7.46937524 -22.92138097 6.70115029 -21.75 5.9375 C-21.1003125 5.50824219 -20.450625 5.07898438 -19.78125 4.63671875 C-13.15469048 1.00642765 -7.53452803 -0.20092075 0 0 Z " fill="#5D8BA6" transform="translate(61.25,9.75)"/>
<path d="M0 0 C0.66 0 1.32 0 2 0 C1.54842977 4.85437999 0.40802387 7.49174013 -3 11 C-3.99 11.33 -4.98 11.66 -6 12 C-6.99 13.485 -6.99 13.485 -8 15 C-8.66 14.67 -9.32 14.34 -10 14 C-8.38798165 8.2683792 -4.12110332 4.12110332 0 0 Z " fill="#276B94" transform="translate(35,19)"/>
<path d="M0 0 C0.99 0 1.98 0 3 0 C3 1.32 3 2.64 3 4 C3.66 4 4.32 4 5 4 C6.4606285 6.64738916 7 7.89448334 7 11 C7.804375 11.268125 8.60875 11.53625 9.4375 11.8125 C10.283125 12.204375 11.12875 12.59625 12 13 C12.33 13.99 12.66 14.98 13 16 C13.99 15.67 14.98 15.34 16 15 C16 16.65 16 18.3 16 20 C8.97300931 17.13715194 4.61299963 10.39135061 1 4 C0.328125 1.72265625 0.328125 1.72265625 0 0 Z " fill="#6BA8AD" transform="translate(12,82)"/>
<path d="M0 0 C0.33 0 0.66 0 1 0 C0.125 6.75 0.125 6.75 -1 9 C5.6 9 12.2 9 19 9 C13.81173757 12.89119682 10.53925381 13.13808151 4.3125 13.0625 C3.61060547 13.05798828 2.90871094 13.05347656 2.18554688 13.04882812 C0.45699462 13.03706927 -1.27151365 13.01913454 -3 13 C-3 12.67 -3 12.34 -3 12 C2.94 11.505 2.94 11.505 9 11 C5.37 10.67 1.74 10.34 -2 10 C-1.54177532 6.53058454 -1.10868317 3.32604951 0 0 Z " fill="#E5F3F5" transform="translate(53,77)"/>
<path d="M0 0 C2.41768869 3.78507 2.52165983 7.76270176 2.75 12.125 C2.81465454 13.25699829 2.81465454 13.25699829 2.88061523 14.41186523 C3.13287225 20.1706031 2.6506264 25.44789303 1 31 C0.01 31.33 -0.98 31.66 -2 32 C-2.15411637 28.76355628 -2.12052205 26.33084484 -1.00390625 23.265625 C0.15796988 19.48613689 0.2310082 16.32238016 0.1875 12.375 C0.18105469 11.08335938 0.17460938 9.79171875 0.16796875 8.4609375 C0.03571212 5.73583574 -0.30940919 3.59763516 -1 1 C-0.67 0.67 -0.34 0.34 0 0 Z " fill="#5FA3A2" transform="translate(89,62)"/>
<path d="M0 0 C-0.66 0 -1.32 0 -2 0 C-2 0.66 -2 1.32 -2 2 C4.57849492 2.95494281 10.41816638 2.8931507 17 2 C10.58354342 6.27763772 2.01364937 5.93598974 -5.40625 4.55078125 C-6.95888918 4.10217034 -8.48530909 3.56360592 -10 3 C-9 1 -9 1 -6.6875 -0.1875 C-3.88010429 -1.03624754 -2.698065 -0.99928333 0 0 Z " fill="#83B9B9" transform="translate(66,115)"/>
<path d="M0 0 C1.09441406 0.32484375 1.09441406 0.32484375 2.2109375 0.65625 C11.92340954 3.24624255 21.01125463 3.30268925 31 3 C30.01 3.495 30.01 3.495 29 4 C29 4.66 29 5.32 29 6 C25.04137069 5.86157705 21.08318673 5.71300994 17.125 5.5625 C15.43310547 5.50352539 15.43310547 5.50352539 13.70703125 5.44335938 C12.63066406 5.40146484 11.55429687 5.35957031 10.4453125 5.31640625 C9.45031738 5.27974854 8.45532227 5.24309082 7.43017578 5.20532227 C5 5 5 5 3 4 C3 3.34 3 2.68 3 2 C2.01 2 1.02 2 0 2 C0 1.34 0 0.68 0 0 Z " fill="#74AFB3" transform="translate(37,86)"/>
<path d="M0 0 C1.00579304 2.64327318 1.08377402 3.76741687 0.109375 6.47265625 C-0.33921875 7.32730469 -0.7878125 8.18195313 -1.25 9.0625 C-1.68828125 9.91972656 -2.1265625 10.77695313 -2.578125 11.66015625 C-3.87874574 13.80046346 -5.14574212 15.33662161 -7 17 C-7.33 16.01 -7.66 15.02 -8 14 C-7.01 13.67 -6.02 13.34 -5 13 C-4.96132812 11.96939453 -4.96132812 11.96939453 -4.921875 10.91796875 C-4.86515625 10.01691406 -4.8084375 9.11585937 -4.75 8.1875 C-4.70359375 7.29417969 -4.6571875 6.40085937 -4.609375 5.48046875 C-4 3 -4 3 -1.953125 1.17578125 C-1.30859375 0.78777344 -0.6640625 0.39976563 0 0 Z " fill="#73ABAD" transform="translate(82,80)"/>
<path d="M0 0 C1.32 0 2.64 0 4 0 C2.75297849 6.35450323 1.42635741 12.68327435 0 19 C-0.33 19 -0.66 19 -1 19 C-1.02690104 16.20826945 -1.04679053 13.41679652 -1.0625 10.625 C-1.07087891 9.8309375 -1.07925781 9.036875 -1.08789062 8.21875 C-1.11328125 2.2265625 -1.11328125 2.2265625 0 0 Z " fill="#337197" transform="translate(40,38)"/>
<path d="M0 0 C1.58409994 0.11487748 3.16728963 0.24234508 4.75 0.375 C6.07257813 0.47941406 6.07257813 0.47941406 7.421875 0.5859375 C10.04500089 1.00722742 11.78861868 1.53570697 14 3 C14.33 3.99 14.66 4.98 15 6 C16.49985609 7.66710346 16.49985609 7.66710346 18 9 C15 9 15 9 12.9375 7.25 C8.96913633 4.21040229 4.66668253 2.70356566 0 1 C0 0.67 0 0.34 0 0 Z " fill="#B4CEDD" transform="translate(86,42)"/>
<path d="M0 0 C0.33 0.66 0.66 1.32 1 2 C-0.71459958 6.072174 -3.12314298 8.2141562 -7.015625 10.28515625 C-10.40909422 11.50760678 -13.42714577 11.25072661 -17 11 C-16.45601562 10.73058594 -15.91203125 10.46117188 -15.3515625 10.18359375 C-12.67716735 8.83751114 -10.02089197 7.46389561 -7.375 6.0625 C-6.41335937 5.55847656 -5.45171875 5.05445312 -4.4609375 4.53515625 C-1.75829543 3.08417427 -1.75829543 3.08417427 0 0 Z " fill="#D1EAEB" transform="translate(74,97)"/>
<path d="M0 0 C2 1 2 1 2.8515625 3.06640625 C3.10679688 3.89011719 3.36203125 4.71382812 3.625 5.5625 C3.88539062 6.38878906 4.14578125 7.21507813 4.4140625 8.06640625 C4.60742188 8.70449219 4.80078125 9.34257813 5 10 C4.34 10 3.68 10 3 10 C3 9.01 3 8.02 3 7 C2.34 7 1.68 7 1 7 C0.67 10.3 0.34 13.6 0 17 C-0.33 17 -0.66 17 -1 17 C-1.02721176 15.10424749 -1.04649136 13.20838021 -1.0625 11.3125 C-1.07410156 10.25675781 -1.08570313 9.20101562 -1.09765625 8.11328125 C-1.00865425 5.27589738 -0.64939838 2.7561081 0 0 Z " fill="#4FA0A3" transform="translate(12,59)"/>
<path d="M0 0 C0.33 1.32 0.66 2.64 1 4 C1.66 4 2.32 4 3 4 C3.99 4.33 4.98 4.66 6 5 C4.69013727 6.16962686 3.3770374 7.33562944 2.0625 8.5 C1.33160156 9.1496875 0.60070313 9.799375 -0.15234375 10.46875 C-2 12 -2 12 -3 12 C-3.34833144 7.12335991 -2.41685712 4.22949995 0 0 Z " fill="#5183A3" transform="translate(49,40)"/>
<path d="M0 0 C0.99 0.33 1.98 0.66 3 1 C2.45730469 1.51949219 1.91460937 2.03898437 1.35546875 2.57421875 C-3.99529043 7.75654302 -3.99529043 7.75654302 -8 14 C-8.671875 12.2578125 -8.671875 12.2578125 -9 10 C-7.890625 7.9296875 -7.890625 7.9296875 -6.25 5.875 C-5.71890625 5.19179688 -5.1878125 4.50859375 -4.640625 3.8046875 C-3 2 -3 2 0 0 Z " fill="#D9EDF6" transform="translate(34,17)"/>
<path d="M0 0 C8.0848329 1.52956298 8.0848329 1.52956298 11 5 C11 5.66 11 6.32 11 7 C11.99 6.67 12.98 6.34 14 6 C14.33 5.34 14.66 4.68 15 4 C15.33 5.32 15.66 6.64 16 8 C11.00330638 8.40295916 8.62017271 7.54388264 4.625 4.5625 C3.75101563 3.92441406 2.87703125 3.28632812 1.9765625 2.62890625 C1.32429688 2.09136719 0.67203125 1.55382812 0 1 C0 0.67 0 0.34 0 0 Z " fill="#5B8EA9" transform="translate(32,75)"/>
<path d="M0 0 C4.39990894 -0.36933542 6.93953196 0.72260049 10.75 2.875 C11.71421875 3.40867187 12.6784375 3.94234375 13.671875 4.4921875 C16 6 16 6 17 8 C13.37471432 8.20140476 11.13498292 7.85776765 8 6 C8 5.01 8 4.02 8 3 C7.236875 2.87625 6.47375 2.7525 5.6875 2.625 C3 2 3 2 0 0 Z " fill="#497E9C" transform="translate(89,21)"/>
<path d="M0 0 C0.66 0 1.32 0 2 0 C2.33 0.66 2.66 1.32 3 2 C3.99 2.66 4.98 3.32 6 4 C0.82421875 7.22265625 0.82421875 7.22265625 -1 8 C-1.99 7.67 -2.98 7.34 -4 7 C-3.67 6.01 -3.34 5.02 -3 4 C-2.34 3.67 -1.68 3.34 -1 3 C-0.67 2.01 -0.34 1.02 0 0 Z " fill="#206D9B" transform="translate(56,35)"/>
<path d="M0 0 C0.845625 0.433125 1.69125 0.86625 2.5625 1.3125 C8.2769528 4.11777683 13.86051231 6.37115633 20 8 C14.96946009 9.70389255 10.77778999 7.84801311 6 6 C3.71330949 4.82064387 2.01108176 3.64061933 0 2 C0 1.34 0 0.68 0 0 Z " fill="#D6EEEE" transform="translate(30,80)"/>
<path d="M0 0 C3.80609809 1.4695997 5.1731926 3.38491469 7.1875 6.875 C7.95126953 8.17050781 7.95126953 8.17050781 8.73046875 9.4921875 C9.84973707 11.70317292 10.53302297 13.58072142 11 16 C10.34 16 9.68 16 9 16 C8.60167969 15.26394531 8.20335938 14.52789062 7.79296875 13.76953125 C7.26316406 12.79371094 6.73335938 11.81789063 6.1875 10.8125 C5.40439453 9.36810547 5.40439453 9.36810547 4.60546875 7.89453125 C3.12536134 5.22601643 1.58662491 2.60625773 0 0 Z " fill="#D3E6F0" transform="translate(104,52)"/>
<path d="M0 0 C0.66 0 1.32 0 2 0 C2.144375 1.134375 2.28875 2.26875 2.4375 3.4375 C2.61171478 6.80777201 2.61171478 6.80777201 4 8 C4.04080783 9.99958364 4.04254356 12.00045254 4 14 C3.34 14 2.68 14 2 14 C1.67 14.66 1.34 15.32 1 16 C1.03255208 13.94921875 1.06510417 11.8984375 1.09765625 9.84765625 C1.20561184 7.98267859 1.20561184 7.98267859 0 7 C-0.04092937 4.66702567 -0.04241723 2.33294775 0 0 Z " fill="#DCE1E9" transform="translate(77,60)"/>
<path d="M0 0 C0.66 0.33 1.32 0.66 2 1 C1.01 1 0.02 1 -1 1 C-0.67 0.67 -0.34 0.34 0 0 Z M-3 2 C-2.34 2.33 -1.68 2.66 -1 3 C-1 3.66 -1 4.32 -1 5 C0.98 4.67 2.96 4.34 5 4 C4.01 5.485 4.01 5.485 3 7 C-0.625 7.6875 -0.625 7.6875 -4 8 C-4.33 8.99 -4.66 9.98 -5 11 C-4.125 3.125 -4.125 3.125 -3 2 Z " fill="#276A93" transform="translate(54,37)"/>
<path d="M0 0 C1.62463842 -0.05395478 3.24978541 -0.09277195 4.875 -0.125 C5.77992187 -0.14820313 6.68484375 -0.17140625 7.6171875 -0.1953125 C10 0 10 0 12 2 C11.21625 1.938125 10.4325 1.87625 9.625 1.8125 C8.325625 1.9053125 8.325625 1.9053125 7 2 C6.01 3.485 6.01 3.485 5 5 C3.35 3.35 1.7 1.7 0 0 Z " fill="#7AAFB4" transform="translate(76,47)"/>
<path d="M0 0 C1.78821774 2.68232661 3.20142604 5.30288961 4.625 8.1875 C5.07101563 9.08855469 5.51703125 9.98960938 5.9765625 10.91796875 C6.31429688 11.60503906 6.65203125 12.29210937 7 13 C6.01 13 5.02 13 4 13 C1.04952165 8.38987758 -0.5497272 5.63470383 0 0 Z " fill="#D7E8F3" transform="translate(22,59)"/>
<path d="M0 0 C0.33 0 0.66 0 1 0 C1 2.97 1 5.94 1 9 C0.34 9 -0.32 9 -1 9 C-1 9.99 -1 10.98 -1 12 C-1.66 11.67 -2.32 11.34 -3 11 C-3.39253254 6.55129785 -2.15305957 3.85756507 0 0 Z " fill="#206D9B" transform="translate(117,50)"/>
<path d="M0 0 C0.66 0.33 1.32 0.66 2 1 C-4 7 -4 7 -7.0625 7.0625 C-8.5165625 7.0315625 -8.5165625 7.0315625 -10 7 C-6.76478258 4.51137122 -3.40739705 2.24578442 0 0 Z " fill="#CFECEC" transform="translate(94,110)"/>
<path d="M0 0 C2.9375 1.1875 2.9375 1.1875 6 3 C6.875 5.6875 6.875 5.6875 7 8 C5.68 8 4.36 8 3 8 C3 7.34 3 6.68 3 6 C2.34 5.67 1.68 5.34 1 5 C0.375 2.4375 0.375 2.4375 0 0 Z " fill="#2F7392" transform="translate(40,74)"/>
<path d="M0 0 C2.31 0 4.62 0 7 0 C5.02 0.99 5.02 0.99 3 2 C5.31 3.98 7.62 5.96 10 8 C9.01 8.33 8.02 8.66 7 9 C6.67 8.01 6.34 7.02 6 6 C5.0409375 5.5359375 5.0409375 5.5359375 4.0625 5.0625 C1.54531085 3.7657662 1.03113052 2.5778263 0 0 Z " fill="#CDE8EA" transform="translate(74,46)"/>
<path d="M0 0 C0.89203125 0.00902344 1.7840625 0.01804687 2.703125 0.02734375 C3.37859375 0.03894531 4.0540625 0.05054688 4.75 0.0625 C4.42 0.7225 4.09 1.3825 3.75 2.0625 C2.780625 2.041875 1.81125 2.02125 0.8125 2 C-2.12465895 1.70631501 -2.12465895 1.70631501 -3.25 3.0625 C-5.92058851 3.20365161 -8.57432238 3.10497107 -11.25 3.0625 C-7.92392552 -0.26357448 -4.54621004 -0.05981855 0 0 Z " fill="#2E6B8E" transform="translate(59.25,10.9375)"/>
<path d="M0 0 C0.33 0 0.66 0 1 0 C1.61538462 7.26153846 1.61538462 7.26153846 -1.5 11 C-2.325 11.66 -3.15 12.32 -4 13 C-3.52140759 11.39566191 -3.04210442 9.79153584 -2.5625 8.1875 C-2.29566406 7.29417969 -2.02882813 6.40085937 -1.75390625 5.48046875 C-1.19612127 3.64526945 -0.60655425 1.81966274 0 0 Z " fill="#D6F0F2" transform="translate(109,86)"/>
<path d="M0 0 C0.99 0 1.98 0 3 0 C5 3 5 3 5 7 C3.02 6.34 1.04 5.68 -1 5 C-1 4.34 -1 3.68 -1 3 C-0.34 3 0.32 3 1 3 C0.67 2.01 0.34 1.02 0 0 Z " fill="#3B7597" transform="translate(113,39)"/>
<path d="M0 0 C0.33 0 0.66 0 1 0 C0.91253716 1.43861294 0.80434652 2.87597508 0.6875 4.3125 C0.62949219 5.11300781 0.57148437 5.91351563 0.51171875 6.73828125 C-0.08206694 9.36272334 -0.95780294 10.30820672 -3 12 C-3 8.44953334 -2.75904303 6.89760758 -1.5 3.75 C-1.2215625 3.04359375 -0.943125 2.3371875 -0.65625 1.609375 C-0.33140625 0.81273438 -0.33140625 0.81273438 0 0 Z " fill="#5D9FA1" transform="translate(107,86)"/>
<path d="M0 0 C1 2 1 2 0.9375 4.4375 C0 7 0 7 -3.0625 8.8125 C-4.031875 9.204375 -5.00125 9.59625 -6 10 C-4.6302836 6.00499382 -2.74277578 3.19990508 0 0 Z " fill="#4E83A0" transform="translate(56,30)"/>
<path d="M0 0 C1.28222189 3.03070628 0.98589446 4.03596914 -0.25 7.1875 C-2 10 -2 10 -5 11 C-3.55049545 7.2089881 -1.84827434 3.6125362 0 0 Z " fill="#78B3B5" transform="translate(86,90)"/>
<path d="M0 0 C2.0625 1.75 2.0625 1.75 4 4 C3.75 6.25 3.75 6.25 3 8 C1.68 7.67 0.36 7.34 -1 7 C-0.67 4.69 -0.34 2.38 0 0 Z " fill="#67ACB4" transform="translate(20,71)"/>
<path d="M0 0 C2.50037734 2.17424117 3.43628586 3.73045798 4 7 C2.35 7.33 0.7 7.66 -1 8 C-0.67 5.36 -0.34 2.72 0 0 Z " fill="#5EA5AA" transform="translate(17,67)"/>
<path d="M0 0 C1.32 0.33 2.64 0.66 4 1 C-1.75 6 -1.75 6 -4 6 C-4.33 5.01 -4.66 4.02 -5 3 C-3.68 3 -2.36 3 -1 3 C-0.67 2.01 -0.34 1.02 0 0 Z " fill="#66A7A7" transform="translate(94,107)"/>
<path d="M0 0 C0.66 1.32 1.32 2.64 2 4 C1.34 4 0.68 4 0 4 C-0.33 5.65 -0.66 7.3 -1 9 C-1.99 8.67 -2.98 8.34 -4 8 C-2.87548273 5.0280615 -1.77706209 2.66559313 0 0 Z " fill="#467C9F" transform="translate(29,25)"/>
<path d="M0 0 C-0.3125 1.875 -0.3125 1.875 -1 4 C-1.99 4.66 -2.98 5.32 -4 6 C-4.99 5.67 -5.98 5.34 -7 5 C-2.25 0 -2.25 0 0 0 Z " fill="#397290" transform="translate(37,19)"/>
<path d="M0 0 C4.455 1.98 4.455 1.98 9 4 C9 4.33 9 4.66 9 5 C2.25 4.125 2.25 4.125 0 3 C0 2.01 0 1.02 0 0 Z " fill="#D5EFF0" transform="translate(27,102)"/>
<path d="M0 0 C1.45606519 4.52092968 0.27032841 7.51648796 -1 12 C-1.33 12 -1.66 12 -2 12 C-2.05422947 10.5629191 -2.09289723 9.12524538 -2.125 7.6875 C-2.14820313 6.88699219 -2.17140625 6.08648437 -2.1953125 5.26171875 C-2 3 -2 3 0 0 Z " fill="#313D55" transform="translate(51,54)"/>
<path d="M0 0 C1.14926266 0.95421808 2.29430541 1.91352045 3.4375 2.875 C4.07558594 3.40867187 4.71367187 3.94234375 5.37109375 4.4921875 C7 6 7 6 8 8 C4.11137013 6.73882275 2.10624401 5.54735833 0 2 C0 1.34 0 0.68 0 0 Z " fill="#DDF6F4" transform="translate(22,72)"/>
<path d="M0 0 C5.4611399 0.35233161 5.4611399 0.35233161 8 1 C9.5 3.0625 9.5 3.0625 10 5 C5 3 5 3 0 1 C0 0.67 0 0.34 0 0 Z " fill="#C2DFED" transform="translate(95,22)"/>
<path d="M0 0 C0.99 0.33 1.98 0.66 3 1 C2.67 2.65 2.34 4.3 2 6 C1.67 5.34 1.34 4.68 1 4 C0.34 4 -0.32 4 -1 4 C-0.67 2.68 -0.34 1.36 0 0 Z " fill="#31759D" transform="translate(49,22)"/>
</svg>
