<?xml version="1.0" encoding="UTF-8"?>
<svg version="1.1" xmlns="http://www.w3.org/2000/svg" width="129" height="124">
<path d="M0 0 C42.57 0 85.14 0 129 0 C129 40.92 129 81.84 129 124 C86.43 124 43.86 124 0 124 C0 83.08 0 42.16 0 0 Z " fill="#EBF5F7" transform="translate(0,0)"/>
<path d="M0 0 C42.57 0 85.14 0 129 0 C129 40.92 129 81.84 129 124 C86.43 124 43.86 124 0 124 C0 83.08 0 42.16 0 0 Z M33 20 C33 20.66 33 21.32 33 22 C32.01 22.33 31.02 22.66 30 23 C22.38572945 32.9937301 19.52366019 43.53313048 21 56 C22.27783298 60.21887715 24.03836298 64.06005482 26 68 C26.77891857 69.70466204 27.5505594 71.41268188 28.3125 73.125 C28.80169922 74.18074219 28.80169922 74.18074219 29.30078125 75.2578125 C30 77 30 77 30 79 C24.07637384 77.23836509 22.08726205 73.48060717 18.87109375 68.46484375 C16.03521003 63.21342651 14.41618824 57.77655728 13 52 C9.23134493 55.76865507 9.81424891 60.97077352 9.75 66.0625 C9.79906645 78.61891075 12.75524929 88.31888157 21 98 C23.81469827 100.44202045 26.70622093 102.27277439 30 104 C30.73992188 104.39832031 31.47984375 104.79664062 32.2421875 105.20703125 C40.40091669 109.43582312 49.53004249 110.61254293 58.5546875 108.36328125 C60.39258346 107.63026827 62.19867719 106.81878309 64 106 C67.71556849 105.15873921 69.37533621 104.79177874 73 106 C67.95322029 111.67762718 62.05046037 114.35607736 55 117 C61.61631774 121.41087849 70.72015226 120.99365556 78.44921875 119.5390625 C80.41399246 118.83882868 82.16221156 117.98640482 84 117 C84.85851562 116.60941406 85.71703125 116.21882813 86.6015625 115.81640625 C97.33534226 110.59736457 104.78939263 102.18442583 109 91 C110.07943754 86.78233015 110.30968678 82.51848052 110.5625 78.1875 C110.62727539 77.14819336 110.62727539 77.14819336 110.69335938 76.08789062 C110.79861453 74.39211314 110.89972863 72.69607948 111 71 C112.65 70.67 114.3 70.34 116 70 C116 71.98 116 73.96 116 76 C116.99 76 117.98 76 119 76 C121.8488013 64.96089496 122.95325236 52.58780709 118 42 C116.20044983 39.14189091 114.17540052 36.57825247 112 34 C111.319375 33.071875 110.63875 32.14375 109.9375 31.1875 C107.83884066 28.81804591 105.73515465 27.55238507 103 26 C102.505 25.01 102.505 25.01 102 24 C101.01 24 100.02 24 99 24 C99 23.34 99 22.68 99 22 C87.91831861 19.46704425 76.65766777 17.89703931 66.18359375 23.125 C63.63372552 24.14677188 61.72365603 24.22347947 59 24 C58.505 23.505 58.505 23.505 58 23 C58.61875 22.5875 59.2375 22.175 59.875 21.75 C62.10504845 20.1963479 62.10504845 20.1963479 62.8125 18 C64.46547651 15.21603957 66.04435756 15.03990832 69.125 14.25 C70.49011719 13.88648438 70.49011719 13.88648438 71.8828125 13.515625 C72.58148438 13.34546875 73.28015625 13.1753125 74 13 C74 12.34 74 11.68 74 11 C59.38409613 6.98021999 44.52395744 10.30939942 33 20 Z " fill="#FBFDFD" transform="translate(0,0)"/>
<path d="M0 0 C0 0.66 0 1.32 0 2 C0.99 2 1.98 2 3 2 C4.875 3.6875 4.875 3.6875 7 6 C7.804375 6.78375 8.60875 7.5675 9.4375 8.375 C14.21953796 13.27367303 17.57986833 17.54631555 20 24 C20.35191406 24.92296875 20.70382813 25.8459375 21.06640625 26.796875 C23.61626058 35.54532918 22.24546516 45.29882252 20 54 C19.01 54 18.02 54 17 54 C16.85304688 53.24976563 16.70609375 52.49953125 16.5546875 51.7265625 C14.23854821 41.15751308 10.24486837 32.15043218 1 26 C-1.62711925 24.52253399 -4.25292988 23.25304953 -7 22 C-7 21.34 -7 20.68 -7 20 C-17.23007283 17.07901211 -32.09805888 17.3113505 -41.796875 21.64453125 C-45.03548545 23.63708059 -47.81513839 25.96327729 -50.5390625 28.609375 C-52 30 -52 30 -53 30 C-53.49931746 22.10381689 -49.33807477 15.85032461 -44.6875 9.6875 C-31.76293912 -3.23706088 -17.24557939 -3.94184672 0 0 Z " fill="#2B7199" transform="translate(99,22)"/>
<path d="M0 0 C1.72985242 0.11512153 3.45888751 0.24255677 5.1875 0.375 C6.15042969 0.44460937 7.11335938 0.51421875 8.10546875 0.5859375 C13.52657883 1.36142693 16.89780884 3.47020761 21 7 C21.63292969 7.48339844 22.26585937 7.96679688 22.91796875 8.46484375 C29.67410223 13.85200459 33.68133499 20.39537779 35 29 C35.85857082 39.897245 33.37880446 48.19200699 27 57 C26.51917969 57.6703125 26.03835937 58.340625 25.54296875 59.03125 C19.37873301 66.83028306 10.65253534 71.82039525 1 74 C-1.71638938 74.25470351 -4.39837138 74.28092584 -7.125 74.25 C-7.81464844 74.25773437 -8.50429687 74.26546875 -9.21484375 74.2734375 C-13.25063159 74.25800428 -16.36925036 73.78005624 -20 72 C-18.62048282 69.24096563 -17.17759337 69.16140149 -14.3125 68.125 C-10.05947163 66.50653713 -6.70899172 64.5962942 -3 62 C-2.34 62 -1.68 62 -1 62 C-1 61.34 -1 60.68 -1 60 C0.35158203 58.93458984 0.35158203 58.93458984 1.73046875 57.84765625 C5.39210438 54.91339813 7.24280112 51.5891445 9.3125 47.4375 C9.65861328 46.77814453 10.00472656 46.11878906 10.36132812 45.43945312 C14.51153524 37.38983114 15.99909322 27.86270989 13.42138672 19.01367188 C10.57696627 11.55153907 7.00430583 6.00246047 0 2 C0 1.34 0 0.68 0 0 Z " fill="#50A4A9" transform="translate(75,46)"/>
<path d="M0 0 C0 0.66 0 1.32 0 2 C-0.60585937 2.12375 -1.21171875 2.2475 -1.8359375 2.375 C-11.65812745 4.79276983 -19.01573654 10.65720518 -24.7578125 18.9296875 C-29.90757863 27.51263105 -32.39301217 36.26525569 -32.375 46.25 C-32.37483887 47.08611816 -32.37467773 47.92223633 -32.37451172 48.78369141 C-32.25114037 55.48859947 -30.91332453 60.93943437 -28 67 C-27.32450748 68.66310916 -26.65545252 70.32889132 -26 72 C-33.49744384 71.86368284 -37.70532101 69.23574008 -43 64 C-45.36481603 61.16326946 -47.23945277 58.24283168 -49 55 C-49.41378906 54.23945312 -49.82757813 53.47890625 -50.25390625 52.6953125 C-54.36569603 43.95596838 -54.41226301 34.29928903 -51.375 25.1875 C-49.26556329 20.10978449 -46.60952169 15.17673224 -43 11 C-42.34 11 -41.68 11 -41 11 C-40.67 10.01 -40.34 9.02 -40 8 C-29.04495219 -1.28797531 -13.83046995 -3.8258588 0 0 Z " fill="#236D97" transform="translate(74,11)"/>
<path d="M0 0 C2.38764986 2.38764986 2.45395507 3.61428871 3.125 6.875 C5.59829157 16.40407768 10.6990845 23.78006515 19 29 C20.00360357 29.9963834 21.00426433 30.99575377 22 32 C23.89487266 33.16417292 23.89487266 33.16417292 25.9375 34.125 C26.60652344 34.45757812 27.27554688 34.79015625 27.96484375 35.1328125 C36.51143845 38.77454767 48.82586512 38.44563208 57.62109375 35.98828125 C61.11919319 34.40772886 64.12161891 32.67947233 67.15625 30.33203125 C69 29 69 29 71 29 C70.6114307 36.38281662 66.34906708 42.65093292 61.25 47.75 C50.17705917 55.41588211 42.54057625 58.01132935 29 57 C25.66312128 56.11273745 22.94429943 54.7816193 20 53 C19.29230469 52.60296875 18.58460937 52.2059375 17.85546875 51.796875 C9.18194012 46.7118378 2.624818 39.10312589 -0.890625 29.58984375 C-3.14856364 19.92909202 -3.04681627 9.41853125 0 0 Z " fill="#4FA3AA" transform="translate(12,52)"/>
<path d="M0 0 C3.41861181 1.16571039 6.17596688 2.68547097 8.1484375 5.83203125 C9.10527811 8.26802456 9.37372107 10.33074414 9.5625 12.9375 C9.76019242 15.54784689 9.98514752 17.94021407 10.6171875 20.484375 C11.07985547 23.5247645 10.52984746 25.41045761 9.5625 28.3125 C9.13130859 29.63701172 9.13130859 29.63701172 8.69140625 30.98828125 C8.46324219 31.65214844 8.23507813 32.31601563 8 33 C5.69 33 3.38 33 1 33 C1 33.99 1 34.98 1 36 C-4.28 36 -9.56 36 -15 36 C-14.731875 34.72125 -14.46375 33.4425 -14.1875 32.125 C-13.68801753 27.93197607 -14.39088645 25.66780743 -16.4375 22 C-19.0448731 17.27596728 -20.4353925 13.35549893 -19 8 C-14.1129319 0.0826526 -8.96682101 -0.9016225 0 0 Z " fill="#162A4C" transform="translate(68,49)"/>
<path d="M0 0 C2.38764986 2.38764986 2.45395507 3.61428871 3.125 6.875 C5.57347045 16.30844705 10.67385336 23.97580595 19 29 C17.02 29.99 17.02 29.99 15 31 C15 30.01 15 29.02 15 28 C14.01 28 13.02 28 12 28 C12 28.66 12 29.32 12 30 C11.34 30 10.68 30 10 30 C10 30.66 10 31.32 10 32 C8.02 32.495 8.02 32.495 6 33 C6.66 29.37 7.32 25.74 8 22 C6.68 22.33 5.36 22.66 4 23 C3.67 20.03 3.34 17.06 3 14 C2.01 14.495 2.01 14.495 1 15 C0.53348793 17.12576782 0.53348793 17.12576782 0.375 19.5625 C0.30023438 20.38878906 0.22546875 21.21507813 0.1484375 22.06640625 C0.09945313 22.70449219 0.05046875 23.34257813 0 24 C-2 22 -2 22 -2.265625 18.76953125 C-2.26046875 17.46371094 -2.2553125 16.15789062 -2.25 14.8125 C-2.25515625 13.51957031 -2.2603125 12.22664063 -2.265625 10.89453125 C-1.99256667 6.89101428 -1.23847879 3.78915534 0 0 Z " fill="#5CA7AB" transform="translate(12,52)"/>
<path d="M0 0 C1.72985242 0.11512153 3.45888751 0.24255677 5.1875 0.375 C6.15042969 0.44460937 7.11335938 0.51421875 8.10546875 0.5859375 C13.52657883 1.36142693 16.89780884 3.47020761 21 7 C21.67933594 7.55300781 22.35867187 8.10601562 23.05859375 8.67578125 C24.14333984 9.57876953 24.14333984 9.57876953 25.25 10.5 C25.93578125 11.0671875 26.6215625 11.634375 27.328125 12.21875 C29.15351337 14.1635563 29.61160403 15.39546232 30 18 C28.68 18 27.36 18 26 18 C26 16.35 26 14.7 26 13 C25.01 12.67 24.02 12.34 23 12 C21.3125 10.4375 21.3125 10.4375 20 9 C19.360625 9.33 18.72125 9.66 18.0625 10 C16 11 16 11 15 11 C14.34 12.65 13.68 14.3 13 16 C11.24663569 13.72062639 9.67769081 11.46652272 8.1875 9 C5.80484556 5.73235962 3.38004924 4.15094043 0 2 C0 1.34 0 0.68 0 0 Z " fill="#58A3A8" transform="translate(75,46)"/>
<path d="M0 0 C0.45890625 0.39832031 0.9178125 0.79664062 1.390625 1.20703125 C2.65788692 2.3012427 3.93025453 3.38956222 5.20703125 4.47265625 C6.46704605 5.54600219 7.70916683 6.64053778 8.9375 7.75 C12.10567754 9.6701076 15.38862247 10.21753487 19 11 C19.33 10.34 19.66 9.68 20 9 C20 9.99 20 10.98 20 12 C15.545 12.495 15.545 12.495 11 13 C14.86731799 14.933659 16.48324962 15.28138031 20.640625 15.4140625 C21.71054687 15.45273438 22.78046875 15.49140625 23.8828125 15.53125 C25.54957031 15.57765625 25.54957031 15.57765625 27.25 15.625 C28.37664063 15.66367188 29.50328125 15.70234375 30.6640625 15.7421875 C33.44254548 15.83637336 36.22102334 15.92199586 39 16 C36.18295089 18.81704911 34.07331474 18.31390038 30.21899414 18.37963867 C29.32172607 18.37810791 28.42445801 18.37657715 27.5 18.375 C26.13766235 18.37367065 26.13766235 18.37367065 24.74780273 18.37231445 C18.12455892 18.2552204 12.79502329 17.37633772 7 14 C6.030625 13.505 5.06125 13.01 4.0625 12.5 C1.85751338 10.89637337 0.48862383 9.27211006 -1 7 C-0.34 7 0.32 7 1 7 C0.67 4.69 0.34 2.38 0 0 Z " fill="#D4EAEE" transform="translate(29,72)"/>
<path d="M0 0 C0.680625 0.21785156 1.36125 0.43570313 2.0625 0.66015625 C5.17419717 1.64434835 5.80614319 1.80810852 9.0625 0.72265625 C10.61671729 0.64158939 12.17417027 0.61508727 13.73046875 0.625 C14.62314453 0.62822266 15.51582031 0.63144531 16.43554688 0.63476562 C17.82870117 0.64733398 17.82870117 0.64733398 19.25 0.66015625 C20.19037109 0.66466797 21.13074219 0.66917969 22.09960938 0.67382812 C24.42063712 0.68560999 26.74153644 0.70206067 29.0625 0.72265625 C29.0625 1.05265625 29.0625 1.38265625 29.0625 1.72265625 C27.41314453 1.76132812 27.41314453 1.76132812 25.73046875 1.80078125 C13.46935853 2.21481081 3.68889116 3.42844769 -5.4765625 12.33203125 C-6.9375 13.72265625 -6.9375 13.72265625 -7.9375 13.72265625 C-8.2852072 8.8547555 -7.492336 5.88609269 -4.9375 1.72265625 C-1.9375 -0.27734375 -1.9375 -0.27734375 0 0 Z " fill="#236B96" transform="translate(53.9375,38.27734375)"/>
<path d="M0 0 C0.66 1.32 1.32 2.64 2 4 C1.01 4.66 0.02 5.32 -1 6 C-1.72439252 8.38593418 -1.72439252 8.38593418 -2.0625 11.0625 C-2.47265625 13.78515625 -2.47265625 13.78515625 -3 16 C-3.66 16.33 -4.32 16.66 -5 17 C-5.23657352 24.03149076 -4.72720745 30.1966485 -3 37 C-2.64963394 38.99708656 -2.30830925 40.99598989 -2 43 C-7.84619298 36.31863659 -8.54800801 29.09721298 -8.35546875 20.54296875 C-7.57926291 12.80649958 -4.66279707 6.16155327 0 0 Z " fill="#417895" transform="translate(29,25)"/>
<path d="M0 0 C1.32 0.33 2.64 0.66 4 1 C3.85925049 1.54019775 3.71850098 2.08039551 3.57348633 2.63696289 C2.19244058 8.30418058 1.64951252 13.61295088 1.6875 19.4375 C1.68878906 20.26354736 1.69007812 21.08959473 1.69140625 21.94067383 C1.78663978 27.9897886 2.58112225 33.39914615 5 39 C4.01 39 3.02 39 2 39 C-0.26353962 33.26813353 -0.3931392 27.99012814 -0.56640625 21.92578125 C-0.56761976 17.49464863 -0.56761976 17.49464863 -3 14 C-2.67 13.01 -2.34 12.02 -2 11 C-1.67 11 -1.34 11 -1 11 C-1.01160156 10.37351562 -1.02320313 9.74703125 -1.03515625 9.1015625 C-1.04417969 8.28429688 -1.05320313 7.46703125 -1.0625 6.625 C-1.07410156 5.81289063 -1.08570313 5.00078125 -1.09765625 4.1640625 C-1 2 -1 2 0 0 Z " fill="#327298" transform="translate(40,38)"/>
<path d="M0 0 C0.33 1.32 0.66 2.64 1 4 C2.98 4 4.96 4 7 4 C6.67 4.99 6.34 5.98 6 7 C6 6.34 6 5.68 6 5 C4.700625 5.8971875 4.700625 5.8971875 3.375 6.8125 C-4.43394128 12 -4.43394128 12 -9 12 C-9 11.34 -9 10.68 -9 10 C-14.28 10 -19.56 10 -25 10 C-24.67 9.34 -24.34 8.68 -24 8 C-18.72 8.33 -13.44 8.66 -8 9 C-8 8.01 -8 7.02 -8 6 C-5.69 6 -3.38 6 -1 6 C-0.67 4.02 -0.34 2.04 0 0 Z " fill="#C3D0DA" transform="translate(77,76)"/>
<path d="M0 0 C0.78439453 -0.00128906 1.56878906 -0.00257812 2.37695312 -0.00390625 C3.59995117 0.00189453 3.59995117 0.00189453 4.84765625 0.0078125 C5.65912109 0.00394531 6.47058594 0.00007812 7.30664062 -0.00390625 C8.09232422 -0.00261719 8.87800781 -0.00132813 9.6875 0 C10.75859009 0.00169189 10.75859009 0.00169189 11.85131836 0.00341797 C13.97799521 0.13707607 15.86370148 0.55320908 17.91015625 1.1328125 C17.91015625 1.7928125 17.91015625 2.4528125 17.91015625 3.1328125 C16.98396484 3.33583984 16.98396484 3.33583984 16.0390625 3.54296875 C9.01864893 5.32745743 4.31579248 8.36697379 -1.08984375 13.1328125 C-1.41984375 12.1428125 -1.74984375 11.1528125 -2.08984375 10.1328125 C-0.76984375 9.8028125 0.55015625 9.4728125 1.91015625 9.1328125 C1.91015625 8.4728125 1.91015625 7.8128125 1.91015625 7.1328125 C2.90015625 7.1328125 3.89015625 7.1328125 4.91015625 7.1328125 C4.91015625 6.4728125 4.91015625 5.8128125 4.91015625 5.1328125 C5.57015625 4.8028125 6.23015625 4.4728125 6.91015625 4.1328125 C7.24015625 3.1428125 7.57015625 2.1528125 7.91015625 1.1328125 C-0.99984375 2.1228125 -0.99984375 2.1228125 -10.08984375 3.1328125 C-6.5687359 0.78540727 -4.139201 0.00654863 0 0 Z " fill="#50839F" transform="translate(56.08984375,9.8671875)"/>
<path d="M0 0 C-0.33169195 6.30214697 -3.67323988 10.85216936 -7 16 C-7.66 15.01 -8.32 14.02 -9 13 C-8.01 12.67 -7.02 12.34 -6 12 C-5.67 10.02 -5.34 8.04 -5 6 C-6.98 6.33 -8.96 6.66 -11 7 C-11.33 7.99 -11.66 8.98 -12 10 C-13.65 10 -15.3 10 -17 10 C-17 9.34 -17 8.68 -17 8 C-15.87851563 7.51080078 -15.87851563 7.51080078 -14.734375 7.01171875 C-13.74953125 6.57472656 -12.7646875 6.13773437 -11.75 5.6875 C-10.77546875 5.25824219 -9.8009375 4.82898438 -8.796875 4.38671875 C-5.81725768 2.90939452 -3.31536136 0 0 0 Z " fill="#61A4A6" transform="translate(83,81)"/>
<path d="M0 0 C3.66666667 0 7.33333333 0 11 0 C11 0.66 11 1.32 11 2 C16.61 2 22.22 2 28 2 C28 2.66 28 3.32 28 4 C24.10422976 4.05821935 20.20857198 4.0936703 16.3125 4.125 C15.20970703 4.14175781 14.10691406 4.15851563 12.97070312 4.17578125 C11.90400391 4.18222656 10.83730469 4.18867187 9.73828125 4.1953125 C8.26935425 4.21102295 8.26935425 4.21102295 6.77075195 4.22705078 C3.82887228 3.98597685 1.66762274 3.23055542 -1 2 C-0.67 1.34 -0.34 0.68 0 0 Z " fill="#F8FDFD" transform="translate(40,84)"/>
<path d="M0 0 C1.32 0.66 2.64 1.32 4 2 C-4.11273698 6.27588961 -11.97723817 6.94055457 -21 6 C-21.99 5.34 -22.98 4.68 -24 4 C-23 3 -23 3 -21.20581055 2.93408203 C-20.05786011 2.97057861 -20.05786011 2.97057861 -18.88671875 3.0078125 C-17.6327832 3.03294922 -17.6327832 3.03294922 -16.35351562 3.05859375 C-14.58767031 3.10257818 -12.82200455 3.15455664 -11.05664062 3.21484375 C-5.9950433 3.36070559 -5.9950433 3.36070559 -1.39453125 1.4921875 C-0.93433594 0.99976562 -0.47414063 0.50734375 0 0 Z " fill="#73B2B1" transform="translate(62,103)"/>
<path d="M0 0 C0.33 0 0.66 0 1 0 C1 1.65 1 3.3 1 5 C1.66 5 2.32 5 3 5 C3.5775 6.093125 4.155 7.18625 4.75 8.3125 C6.45672651 11.3358441 8.10530868 13.03574518 11 15 C11 15.66 11 16.32 11 17 C11.99 16.67 12.98 16.34 14 16 C14 17.65 14 19.3 14 21 C7.31893168 18.27808328 1.94554743 11.46691617 -1 5 C-0.6640625 2.21875 -0.6640625 2.21875 0 0 Z " fill="#66A6AB" transform="translate(14,81)"/>
<path d="M0 0 C0.33 0.66 0.66 1.32 1 2 C1.66 2 2.32 2 3 2 C2.04408477 7.16194223 1.19653259 11.69162998 -2 16 C-2.33 16 -2.66 16 -3 16 C-3.37952295 9.80112515 -2.8352113 5.5522888 0 0 Z " fill="#F2FCFC" transform="translate(45,39)"/>
<path d="M0 0 C0 1.98 0 3.96 0 6 C0.66 6 1.32 6 2 6 C1.67 6.99 1.34 7.98 1 9 C0.34 9 -0.32 9 -1 9 C-1.33 9.66 -1.66 10.32 -2 11 C-2 10.34 -2 9.68 -2 9 C-4.31 8.67 -6.62 8.34 -9 8 C-7.66666667 6.66666667 -6.33333333 5.33333333 -5 4 C-4.278125 3.2575 -3.55625 2.515 -2.8125 1.75 C-1 0 -1 0 0 0 Z " fill="#DEF4F4" transform="translate(75,97)"/>
<path d="M0 0 C1.32 0 2.64 0 4 0 C4 3.63 4 7.26 4 11 C7.96 11 11.92 11 16 11 C16 11.33 16 11.66 16 12 C10.72 12 5.44 12 0 12 C0.29296875 9.75390625 0.5859375 7.5078125 0.87890625 5.26171875 C1.14755178 2.83182884 1.14755178 2.83182884 0 0 Z " fill="#2B3953" transform="translate(53,73)"/>
<path d="M0 0 C0.66 1.32 1.32 2.64 2 4 C-6.07744875 10.70387244 -6.07744875 10.70387244 -12 11 C-10.71034824 9.62437146 -9.37310707 8.29233607 -8 7 C-7.34 7 -6.68 7 -6 7 C-6 6.34 -6 5.68 -6 5 C-4.04072937 3.2856382 -2.04119788 1.61594832 0 0 Z " fill="#6FAFB0" transform="translate(80,101)"/>
<path d="M0 0 C0 0.66 0 1.32 0 2 C-1.98 2.66 -3.96 3.32 -6 4 C-6 4.99 -6 5.98 -6 7 C-1.38 7 3.24 7 8 7 C8 7.33 8 7.66 8 8 C5.43721301 8.05420701 2.87558517 8.09377007 0.3125 8.125 C-0.40873047 8.14175781 -1.12996094 8.15851563 -1.87304688 8.17578125 C-6.04876781 8.21391569 -9.2494138 7.8789919 -13 6 C-11.59719304 3.19438607 -9.9490995 2.99319493 -7.0625 1.875 C-6.16660156 1.52179688 -5.27070312 1.16859375 -4.34765625 0.8046875 C-2 0 -2 0 0 0 Z " fill="#99C6C6" transform="translate(68,112)"/>
<path d="M0 0 C0.66 0.33 1.32 0.66 2 1 C1.505 1.598125 1.01 2.19625 0.5 2.8125 C-1.28276418 4.97029994 -1.28276418 4.97029994 -1 8 C-3 9.6875 -3 9.6875 -5 11 C-5 10.34 -5 9.68 -5 9 C-6.65 9 -8.3 9 -10 9 C-9.67 8.01 -9.34 7.02 -9 6 C-8.34 6 -7.68 6 -7 6 C-5.20658473 4.67145191 -5.20658473 4.67145191 -3.375 3 C-2.74335937 2.443125 -2.11171875 1.88625 -1.4609375 1.3125 C-0.97882812 0.879375 -0.49671875 0.44625 0 0 Z " fill="#D1E2EA" transform="translate(55,44)"/>
<path d="M0 0 C2.42130331 2.42130331 2.52840504 3.80111377 3.125 7.125 C3.29257813 8.03507812 3.46015625 8.94515625 3.6328125 9.8828125 C3.81457031 10.93082031 3.81457031 10.93082031 4 12 C3.34 11.67 2.68 11.34 2 11 C2 9.68 2 8.36 2 7 C1.34 7 0.68 7 0 7 C-0.33 11.95 -0.66 16.9 -1 22 C-1.33 22 -1.66 22 -2 22 C-2.05454409 19.64551325 -2.0939279 17.29232125 -2.125 14.9375 C-2.14820313 13.62652344 -2.17140625 12.31554687 -2.1953125 10.96484375 C-1.99417522 6.88175701 -1.27165462 3.85000947 0 0 Z " fill="#7DB1B3" transform="translate(12,52)"/>
<path d="M0 0 C0.9178125 0.01353516 1.835625 0.02707031 2.78125 0.04101562 C5.02146803 0.07601903 7.26040594 0.12511131 9.5 0.1875 C9.5 0.5175 9.5 0.8475 9.5 1.1875 C7.78103516 1.24357422 7.78103516 1.24357422 6.02734375 1.30078125 C4.49736554 1.36648584 2.96741903 1.43293159 1.4375 1.5 C0.68533203 1.52255859 -0.06683594 1.54511719 -0.84179688 1.56835938 C-6.09667829 1.81859182 -9.73094708 3.01019677 -14.5 5.1875 C-15.82 5.1875 -17.14 5.1875 -18.5 5.1875 C-18.5 4.5275 -18.5 3.8675 -18.5 3.1875 C-12.10309442 0.34027917 -6.95490972 -0.19712317 0 0 Z " fill="#5488A6" transform="translate(73.5,38.8125)"/>
<path d="M0 0 C0.33 1.32 0.66 2.64 1 4 C1.66 4 2.32 4 3 4 C3.99 4.33 4.98 4.66 6 5 C4.69013727 6.16962686 3.3770374 7.33562944 2.0625 8.5 C1.33160156 9.1496875 0.60070313 9.799375 -0.15234375 10.46875 C-2 12 -2 12 -3 12 C-3.34833144 7.12335991 -2.41685712 4.22949995 0 0 Z " fill="#5183A2" transform="translate(49,40)"/>
<path d="M0 0 C1.31538327 4.15771494 0.34433068 6.8879297 -1 11 C-1.66 11 -2.32 11 -3 11 C-3.33 11.99 -3.66 12.98 -4 14 C-4.99 14.33 -5.98 14.66 -7 15 C-5.63408831 11.45756548 -4.09068516 8.07372071 -2.375 4.6875 C-1.70597656 3.36298828 -1.70597656 3.36298828 -1.0234375 2.01171875 C-0.68570313 1.34785156 -0.34796875 0.68398437 0 0 Z " fill="#6EACAD" transform="translate(88,86)"/>
<path d="M0 0 C0.66 0.33 1.32 0.66 2 1 C1.071875 1.4021875 1.071875 1.4021875 0.125 1.8125 C-2.2995233 2.95556848 -2.2995233 2.95556848 -4 6 C-4.99 6 -5.98 6 -7 6 C-7.226875 6.61875 -7.45375 7.2375 -7.6875 7.875 C-9.37929835 10.61410209 -10.99244161 11.05024472 -14 12 C-13.67 11.01 -13.34 10.02 -13 9 C-12.34 9 -11.68 9 -11 9 C-10.67 8.01 -10.34 7.02 -10 6 C-8.4765625 4.6484375 -8.4765625 4.6484375 -6.625 3.375 C-6.01914062 2.94960937 -5.41328125 2.52421875 -4.7890625 2.0859375 C-3 1 -3 1 0 0 Z " fill="#618FAA" transform="translate(44,13)"/>
<path d="M0 0 C0.33 0 0.66 0 1 0 C1.03738281 0.82242188 1.07476562 1.64484375 1.11328125 2.4921875 C1.53980876 9.73479187 2.54735781 16.1665378 5 23 C4.01 23 3.02 23 2 23 C-0.07434732 17.88763219 -0.24424065 13.53669107 -0.125 8.125 C-0.11597656 7.34125 -0.10695312 6.5575 -0.09765625 5.75 C-0.07428063 3.83319945 -0.03841653 1.91655809 0 0 Z " fill="#5A87A7" transform="translate(40,54)"/>
<path d="M0 0 C0.33 1.32 0.66 2.64 1 4 C2.98 4 4.96 4 7 4 C6.67 4.99 6.34 5.98 6 7 C6 6.34 6 5.68 6 5 C5.071875 5.66 4.14375 6.32 3.1875 7 C0 9 0 9 -3 9 C-2.67 8.67 -2.34 8.34 -2 8 C-3.32 7.34 -4.64 6.68 -6 6 C-4.35 6 -2.7 6 -1 6 C-0.67 4.02 -0.34 2.04 0 0 Z " fill="#D2E4EA" transform="translate(77,76)"/>
<path d="M0 0 C2.31 0 4.62 0 7 0 C7.12375 0.969375 7.2475 1.93875 7.375 2.9375 C7.58125 3.948125 7.7875 4.95875 8 6 C8.66 6.33 9.32 6.66 10 7 C9.67 7.99 9.34 8.98 9 10 C8.60167969 9.52949219 8.20335938 9.05898438 7.79296875 8.57421875 C7.26316406 7.95160156 6.73335938 7.32898437 6.1875 6.6875 C5.66542969 6.07261719 5.14335938 5.45773438 4.60546875 4.82421875 C3.12827531 3.14575321 1.59960869 1.56117966 0 0 Z " fill="#407797" transform="translate(100,47)"/>
<path d="M0 0 C1.72985242 0.11512153 3.45888751 0.24255677 5.1875 0.375 C6.15042969 0.44460937 7.11335938 0.51421875 8.10546875 0.5859375 C11.01508938 1.00215853 13.32890774 1.79874096 16 3 C13.47946405 4.26026798 12.1457902 3.91874445 9.375 3.5625 C8.14910156 3.40974609 8.14910156 3.40974609 6.8984375 3.25390625 C6.27195312 3.17011719 5.64546875 3.08632813 5 3 C4.67 3.66 4.34 4.32 4 5 C2 3.625 2 3.625 0 2 C0 1.34 0 0.68 0 0 Z " fill="#97C3C9" transform="translate(75,46)"/>
<path d="M0 0 C5.55555556 1.35802469 5.55555556 1.35802469 7.6875 4.4375 C8.120625 5.283125 8.55375 6.12875 9 7 C9.5775 7.515625 10.155 8.03125 10.75 8.5625 C11.36875 9.2740625 11.36875 9.2740625 12 10 C11.6875 12.1875 11.6875 12.1875 11 14 C10.4225 13.113125 9.845 12.22625 9.25 11.3125 C6.51787314 7.21913679 3.57558856 3.39680913 0 0 Z " fill="#D7EFF7" transform="translate(105,27)"/>
<path d="M0 0 C0.66 0 1.32 0 2 0 C1.56826373 5.09448798 1.24599784 8.84512277 -2 13 C-2.66 13 -3.32 13 -4 13 C-3.25 8.25 -3.25 8.25 -1 6 C-1.33 5.01 -1.66 4.02 -2 3 C-1.34 2.01 -0.68 1.02 0 0 Z " fill="#6BA8AC" transform="translate(107,86)"/>
<path d="M0 0 C2.875 0.3125 2.875 0.3125 6 1 C6.66 1.99 7.32 2.98 8 4 C9.32 4 10.64 4 12 4 C12.33 3.34 12.66 2.68 13 2 C13.66 3.65 14.32 5.3 15 7 C8.37556458 6.6513455 5.10739657 5.25616381 0 1 C0 0.67 0 0.34 0 0 Z " fill="#5B8DA5" transform="translate(33,76)"/>
<path d="M0 0 C0.66 0.66 1.32 1.32 2 2 C1.01 5.3 0.02 8.6 -1 12 C-2.98 12 -4.96 12 -7 12 C-5.68 11.67 -4.36 11.34 -3 11 C-2.690625 9.741875 -2.38125 8.48375 -2.0625 7.1875 C-1.46021952 4.73822606 -0.79911359 2.39734077 0 0 Z " fill="#3D4B60" transform="translate(77,70)"/>
<path d="M0 0 C-0.4794463 4.21912747 -1.16625119 6.79663178 -4 10 C-3.67 8.02 -3.34 6.04 -3 4 C-4.32 4.33 -5.64 4.66 -7 5 C-2.25 0 -2.25 0 0 0 Z " fill="#80B0B3" transform="translate(83,81)"/>
<path d="M0 0 C1.15518918 0.90484792 2.29885406 1.8244206 3.4375 2.75 C4.07558594 3.26046875 4.71367188 3.7709375 5.37109375 4.296875 C7.18810554 6.19667629 7.60423197 7.43586908 8 10 C6.68 10 5.36 10 4 10 C4 8.35 4 6.7 4 5 C3.01 4.67 2.02 4.34 1 4 C0.3125 1.9375 0.3125 1.9375 0 0 Z " fill="#70ABB0" transform="translate(97,54)"/>
<path d="M0 0 C0.66 0 1.32 0 2 0 C2 6.93 2 13.86 2 21 C0.04020294 18.06030441 -0.26841156 17.32577092 -0.44921875 14.0234375 C-0.49240234 13.270625 -0.53558594 12.5178125 -0.58007812 11.7421875 C-0.61552734 10.96101563 -0.65097656 10.17984375 -0.6875 9.375 C-0.73455078 8.58609375 -0.78160156 7.7971875 -0.83007812 6.984375 C-0.934515 4.99151402 -0.97269441 2.99540882 -1 1 C-0.67 0.67 -0.34 0.34 0 0 Z " fill="#D9F3F5" transform="translate(9,57)"/>
<path d="M0 0 C0.33 0.99 0.66 1.98 1 3 C0.67 3.66 0.34 4.32 0 5 C-1.65 4.67 -3.3 4.34 -5 4 C-5.33 3.01 -5.66 2.02 -6 1 C-4 0 -4 0 0 0 Z " fill="#ECF9F4" transform="translate(30,74)"/>
<path d="M0 0 C0.66 0 1.32 0 2 0 C1.34 1.65 0.68 3.3 0 5 C-3.63 5.33 -7.26 5.66 -11 6 C-10.67 5.34 -10.34 4.68 -10 4 C-7.71484375 3.3671875 -7.71484375 3.3671875 -4.9375 2.875 C-4.01839844 2.70742187 -3.09929687 2.53984375 -2.15234375 2.3671875 C-1.44207031 2.24601563 -0.73179688 2.12484375 0 2 C0 1.34 0 0.68 0 0 Z " fill="#BCD7E4" transform="translate(74,11)"/>
<path d="M0 0 C1.32 0.33 2.64 0.66 4 1 C3.3503125 1.5878125 3.3503125 1.5878125 2.6875 2.1875 C0.73633776 4.28319278 -0.59010162 6.51589333 -2 9 C-2.33 8.34 -2.66 7.68 -3 7 C-2.06421005 4.64018187 -1.06652192 2.30368736 0 0 Z " fill="#EBF4F9" transform="translate(53,24)"/>
<path d="M0 0 C0 0.66 0 1.32 0 2 C-0.99 2 -1.98 2 -3 2 C-3.33 2.99 -3.66 3.98 -4 5 C-5.65 5 -7.3 5 -9 5 C-9 4.34 -9 3.68 -9 3 C-2.25 0 -2.25 0 0 0 Z " fill="#6AA6AD" transform="translate(75,86)"/>
<path d="M0 0 C-3.28463659 2.18975773 -6.20696275 2.99806563 -10 4 C-9.1875 2.0625 -9.1875 2.0625 -8 0 C-4.71023192 -1.09658936 -3.28696233 -0.79953138 0 0 Z " fill="#E5F8FD" transform="translate(52,10)"/>
<path d="M0 0 C0.33 0 0.66 0 1 0 C1 2.97 1 5.94 1 9 C-0.98 9.99 -0.98 9.99 -3 11 C-2.01 7.37 -1.02 3.74 0 0 Z " fill="#E1F8FA" transform="translate(109,86)"/>
<path d="M0 0 C1.5 1.25 1.5 1.25 3 3 C3 4.32 3 5.64 3 7 C1.68 6.34 0.36 5.68 -1 5 C-1 2 -1 2 0 0 Z " fill="#457A9A" transform="translate(115,39)"/>
<path d="M0 0 C2 2 2 2 2.3125 4.4375 C2 7 2 7 -1 10 C-0.67 6.7 -0.34 3.4 0 0 Z " fill="#D0DAE2" transform="translate(53,74)"/>
<path d="M0 0 C0.66 0.33 1.32 0.66 2 1 C2.625 3.0625 2.625 3.0625 3 5 C1.35 5 -0.3 5 -2 5 C-2 2 -2 2 0 0 Z " fill="#276E8F" transform="translate(43,76)"/>
<path d="M0 0 C1.45606519 4.52092968 0.27032841 7.51648796 -1 12 C-1.33 12 -1.66 12 -2 12 C-2.05422947 10.5629191 -2.09289723 9.12524538 -2.125 7.6875 C-2.14820313 6.88699219 -2.17140625 6.08648437 -2.1953125 5.26171875 C-2 3 -2 3 0 0 Z " fill="#313D55" transform="translate(51,54)"/>
<path d="M0 0 C0.99 0.33 1.98 0.66 3 1 C1.68 3.64 0.36 6.28 -1 9 C-1.33 9 -1.66 9 -2 9 C-1.125 1.125 -1.125 1.125 0 0 Z " fill="#D6F0F9" transform="translate(25,27)"/>
<path d="M0 0 C2.475 0.495 2.475 0.495 5 1 C4.01 2.98 3.02 4.96 2 7 C0.5393715 4.35261084 0 3.10551666 0 0 Z " fill="#327491" transform="translate(45,27)"/>
<path d="M0 0 C0.99 0.66 1.98 1.32 3 2 C-1.75 6 -1.75 6 -4 6 C-4 5.34 -4 4.68 -4 4 C-3.34 4 -2.68 4 -2 4 C-1.34 2.68 -0.68 1.36 0 0 Z " fill="#6DAAAA" transform="translate(94,107)"/>
<path d="M0 0 C1.32 0.66 2.64 1.32 4 2 C1.1875 3.5625 1.1875 3.5625 -2 5 C-2.99 4.67 -3.98 4.34 -5 4 C-3.35 2.68 -1.7 1.36 0 0 Z " fill="#79B3B3" transform="translate(62,103)"/>
<path d="M0 0 C1.65 1.65 3.3 3.3 5 5 C4.67 5.66 4.34 6.32 4 7 C2.68 7 1.36 7 0 7 C0 4.69 0 2.38 0 0 Z " fill="#D7E9F3" transform="translate(106,53)"/>
<path d="M0 0 C0.99 0 1.98 0 3 0 C1.9024777 2.99324263 1.32317108 3.84610901 -1.625 5.25 C-2.40875 5.4975 -3.1925 5.745 -4 6 C-3.67 5.01 -3.34 4.02 -3 3 C-2.34 3 -1.68 3 -1 3 C-0.67 2.01 -0.34 1.02 0 0 Z " fill="#5888A2" transform="translate(34,19)"/>
</svg>
